<?xml version="1.0"?><svg version="1.1" id="圖層_1" xmlns="http://www.w3.org/2000/svg" x="0" y="0" viewBox="0 0 100 100" xml:space="preserve"><path d="M76.8 46.7l-12.1 2.2c-.5-4.5-5-10-13.4-15.9-.7-.9-.6-2.1.3-2.8.7-.5 1.6-.5 2.2 0l23 16.5z" fill="#e15b64"/><path d="M38.4 44.9H17c0-2.6 2.1-4.7 4.7-4.7h12.1c2.5 0 4.6 2.1 4.6 4.7z" fill="#333"/><path d="M87.8 54c-.2-.4-.3-.7-.5-1.1-.7-1.5-1.4-3-2.5-4.2-2.3-2.7-5.8-4.2-9.3-4.3-4.2-.1-8.4 0-12.6 0H15.5c-3.1 0-5.7 2.2-6.2 5.2 0 .1-.1.2-.1.3l-.6 3.9-.8 5.4c0 2.2 1.8 4.1 4.1 4.1H89c.7 0 1.9.2 1.6-.8-.7-2.9-1.7-5.7-2.8-8.5z" fill="#f47e60"/><path d="M13.5 49.6h-4c-.3 0-.5.2-.5.4l-.5 3.4c0 .3.2.5.4.5h4.6c1.1 0 1.9-.8 1.9-1.9v-.5c0-1-.9-1.9-1.9-1.9z" fill="#c33737"/><path d="M88 51.5c-.3-1.1-1.3-1.9-2.5-1.9H84c-.8 0-1.4.6-1.4 1.3v1.6c0 .7.6 1.3 1.4 1.3h3.1c.8 0 1.4-.8 1.2-1.5l-.3-.8z" fill="#e0e0e0"/><path d="M90.3 58.9H7.9s-.4 0-.4.4c0 2.4 1.7 4.1 4.2 4.1h78.5c1.2 0 2.2-1 2.2-2.2.1-1.3-.9-2.3-2.1-2.3z" fill="#e15b64"/><g><circle cx="23.9" cy="61.2" r="7.5" fill="#fff"/><path d="M23.9 55.3c3.3 0 6 2.7 6 6s-2.7 6-6 6-6-2.7-6-6c0-3.4 2.7-6 6-6m0-3c-5 0-9 4-9 9s4 9 9 9 9-4 9-9-4.1-9-9-9z" fill="#333"/></g><path d="M26.3 49c3.6.7 6.7 2.8 8.7 5.7" fill="#fff" stroke="#e15b64" stroke-width="3" stroke-linecap="round" stroke-miterlimit="10"/><g><circle cx="23.9" cy="61.2" r="4" fill="#e6e6e6"/></g><g><circle cx="71.5" cy="61.2" r="7.5" fill="#fff"/><path d="M71.5 55.3c3.3 0 6 2.7 6 6s-2.7 6-6 6-6-2.7-6-6c0-3.4 2.7-6 6-6m0-3c-5 0-9 4-9 9s4 9 9 9 9-4 9-9-4-9-9-9z" fill="#333"/></g><g><circle cx="71.5" cy="61.2" r="4" fill="#e6e6e6"/></g><path d="M58.7 56.6H35.2c-.7 0-1.2-.5-1.2-1.2v-.3c0-.7.5-1.2 1.2-1.2h23.5c.7 0 1.2.5 1.2 1.2v.3c0 .7-.5 1.2-1.2 1.2z" fill="#e15b64"/><metadata xmlns:d="https://loading.io/stock/">
<d:name>convertible</d:name>
<d:tags>car,sedan,cabrio,coupe,wheel,drive,vehicle,convertible,transportation</d:tags>
<d:license>by</d:license>
<d:slug>1boqpo</d:slug>
</metadata></svg>