<?xml version="1.0"?>
<svg version="1.1" id="圖層_1" xmlns="http://www.w3.org/2000/svg" x="0" y="0" viewBox="0 0 100 100" xml:space="preserve"><path fill="none" stroke="gray" stroke-width="2" stroke-linecap="round" stroke-miterlimit="10" d="M21.6 26.1v16.2"/><path d="M54.7 53.9l-10.2 1.4-25-27.9c-.5-.6-.7-1.4-.4-2.2.5-1.4 2.3-1.8 3.4-.8l32.2 29.5z" fill="#e0e0e0"/><path d="M60.5 58.5h-26v-3c0-1.5 1.2-2.7 2.7-2.7h20.5c1.5 0 2.7 1.2 2.7 2.7v3z" fill="#e0e0e0"/><path fill="#f8b26a" d="M7.9 56.8h56.7v8H7.9z"/><path d="M11.9 58.9h-4c-.2 0-.4.2-.4.4v3.4c0 .2.2.4.4.4H12c1 0 1.8-.8 1.8-1.8v-.5c0-1-.9-1.9-1.9-1.9z" fill="#e15b64"/><path d="M88.9 69.3H66.8c-1.6 0-2.8-1.3-2.8-2.8l.1-31c0-1.6 1.3-2.8 2.8-2.8h13c1 0 2 .6 2.5 1.5l8.9 16.2c.2.4.3.9.3 1.4v14.8c.1 1.4-1.2 2.7-2.7 2.7z" fill="#f8b26a"/><path d="M73.5 64.8H9.7s-.3 0-.3.4c0 2.4 1.3 4 3.3 4h60.8c1 0 1.7-1 1.7-2.2 0-1.2-.8-2.2-1.7-2.2z" fill="#666"/><g><circle cx="25.6" cy="67.2" r="7.4" fill="#fff"/><path d="M25.6 61.3c3.3 0 5.9 2.7 5.9 5.9s-2.7 5.9-5.9 5.9c-3.3 0-5.9-2.7-5.9-5.9s2.7-5.9 5.9-5.9m0-3c-4.9 0-8.9 4-8.9 8.9s4 8.9 8.9 8.9 8.9-4 8.9-8.9-3.9-8.9-8.9-8.9z" fill="#333"/></g><g><circle cx="25.6" cy="67.2" r="4" fill="#e6e6e6"/></g><g><circle cx="72.9" cy="67.2" r="7.4" fill="#fff"/><path d="M72.9 61.3c3.3 0 5.9 2.7 5.9 5.9s-2.7 5.9-5.9 5.9-5.9-2.7-5.9-5.9 2.6-5.9 5.9-5.9m0-3c-4.9 0-8.9 4-8.9 8.9s4 8.9 8.9 8.9 8.9-4 8.9-8.9-4-8.9-8.9-8.9z" fill="#333"/></g><g><circle cx="72.9" cy="67.2" r="4" fill="#e6e6e6"/></g><path d="M86.9 59.9h4.4c.6 0 1.1-.5 1.1-1.1v-1.9c0-.6-.5-1.1-1.1-1.1H87c-.3 0-.5.2-.5.5v3.2c0 .2.2.4.4.4z" fill="#e0e0e0"/><path d="M80.8 36.4c-.4-.7-1.1-1.2-2-1.2H68.5c-1.2 0-2.2 1-2.2 2.3L66.2 51h22.7c0-.2-.1-.4-.2-.6l-7.9-14z" fill="#333"/><path d="M71.8 55.2h-3.5c-.5 0-.9-.4-.9-.9s.4-.9.9-.9h3.5c.5 0 .9.4.9.9s-.4.9-.9.9z" fill="#f47e60"/><path d="M21.6 52c-2.7 0-4.8-2.2-4.8-4.8s2.2-4.8 4.8-4.8 4.8 2.2 4.8 4.8" fill="none" stroke="gray" stroke-width="2" stroke-linecap="round" stroke-miterlimit="10"/><circle cx="21.6" cy="42.2" r="2.3" fill="gray"/><metadata xmlns:d="https://loading.io/stock/"><d:name>traitor</d:name><d:tags>towing crane,chaser,traffic,accident,jam,emergency roadside assistance,traitor,transportation</d:tags><d:license>by</d:license><d:slug>1k4h88</d:slug></metadata></svg>