<?xml version="1.0"?>
<svg version="1.1" id="圖層_1" xmlns="http://www.w3.org/2000/svg" x="0" y="0" viewBox="0 0 100 100" xml:space="preserve"><path d="M65.517 50.084l1.609-5.567a1.946 1.946 0 0 0-1.329-2.409l-4.696-1.357c-3.653-1.056-7.432.428-9.467 3.404a23.273 23.273 0 0 0-1.635-.063c-.604 0-1.2.032-1.792.077-2.032-2.986-5.818-4.476-9.477-3.418l-4.696 1.357a1.946 1.946 0 0 0-1.329 2.409l1.645 5.691c-4.217 3.922-6.85 9.402-6.85 15.487v14.467c0 2.984 2.52 5.403 5.628 5.403h33.745c3.108 0 5.628-2.419 5.628-5.403V65.695c-.001-6.148-2.688-11.681-6.984-15.611z" fill="#333"/><path d="M53.905 64.72l-2.026 1.274c-.973.612-2.784.612-3.757 0l-2.026-1.274c-2.052-1.29-3.01-2.955-2.655-4.616l3.588-16.79h5.943l3.588 16.79c.354 1.662-.603 3.326-2.655 4.616z" fill="#e0e0e0"/><path d="M50 53.312h-1.692L46.985 65.28l1.136.714c.973.612 2.784.612 3.757 0l1.136-.714-1.323-11.967H50z" fill="#131f25"/><path d="M51.692 53.312h-3.384l-1.591-3.82a1.33 1.33 0 0 1 1.228-1.842h4.111a1.33 1.33 0 0 1 1.228 1.842l-1.592 3.82z" fill="#131f25"/><circle cx="50" cy="34.578" r="14.513" fill="#c7b299"/><ellipse cx="50" cy="29.704" rx="19.625" ry="2.64" fill="#333"/><path d="M63.632 29.12H36.368l1.107-7.896c.343-4.797 3.597-7.907 6.705-6.41l4.225 2.034a3.586 3.586 0 0 0 3.19 0l4.225-2.034c3.109-1.497 6.362 1.613 6.705 6.41l1.107 7.896z" fill="#333"/><path d="M60.425 33.315h-7.231c-.432 0-.844.19-1.135.523l-.819.939h-2.483l-.819-.939a1.508 1.508 0 0 0-1.135-.523h-7.231c-1.301 0-2.291 1.218-2.079 2.556l.374 2.355c.168 1.061 1.048 1.839 2.079 1.839h5.389c1.443 0 2.727-.956 3.196-2.379l.357-1.083h2.221l.357 1.083c.469 1.423 1.753 2.379 3.196 2.379h5.366c.998 0 1.849-.753 2.012-1.78l.396-2.497c.206-1.295-.752-2.473-2.011-2.473z" fill="#333"/><metadata xmlns:d="https://loading.io/stock/"><d:name>gangster</d:name><d:tags>underworld,underbelly,mob,mafia,crime,gangster,people</d:tags><d:license>pro</d:license><d:slug>2mb7or</d:slug></metadata></svg>