<?xml version="1.0"?>
<svg version="1.1" id="圖層_1" xmlns="http://www.w3.org/2000/svg" x="0" y="0" viewBox="0 0 100 100" xml:space="preserve"><g><path d="M52.39 89.661h-4.78V48.837a2.39 2.39 0 1 1 4.78 0v40.824z" fill="#333"/></g><path d="M47.61 46.448a2.39 2.39 0 0 0-1.156 3.176l18.67 40.038h5.273L50.786 47.603a2.39 2.39 0 0 0-3.176-1.155z" fill="#333"/><path d="M52.39 46.448a2.39 2.39 0 0 0-3.176 1.156L29.603 89.661h5.273l18.67-40.038a2.39 2.39 0 0 0-1.156-3.175z" fill="#333"/><path fill="#f5e6c8" d="M12.398 15.386h75.204v50.86H12.398z"/><path d="M7.5 10.488v60.656h85V10.488h-85zm80.102 55.758H12.398v-50.86h75.204v50.86z"/><path id="XMLID_557_" d="M68.977 40.937c0 10.048-7.598 18.298-17.728 18.953V21.984c10.13.654 17.728 8.905 17.728 18.953z" fill="#e15b64"/><path id="XMLID_556_" d="M48.716 59.889V41.668l-15.709-9.11c-1.278 2.601-1.984 5.473-1.984 8.379 0 10.047 7.844 18.298 17.693 18.952z" fill="#849b87"/><path id="XMLID_555_" d="M48.716 38.743V21.985c-5.628.394-11.243 3.504-14.513 8.379l14.513 8.379z" fill="#f8b26a"/><metadata xmlns:d="https://loading.io/stock/"><d:name>canvas</d:name><d:tags>pie chart,presentation,slide,powerpoint,keynote,pitch,brief,canvas,business</d:tags><d:license>pro</d:license><d:slug>3hdacw</d:slug></metadata></svg>