<?xml version="1.0"?>
<svg version="1.1" id="圖層_1" xmlns="http://www.w3.org/2000/svg" x="0" y="0" viewBox="0 0 100 100" xml:space="preserve"><path d="M28.6 33.2h-7.4c-1.1 0-2.1-.9-2.1-2.1v-1c0-1.1.9-2.1 2.1-2.1h7.4c1.1 0 2.1.9 2.1 2.1v1c0 1.1-1 2.1-2.1 2.1z" fill="#666"/><path d="M52 33.2h-7.4c-1.1 0-2.1-.9-2.1-2.1v-1c0-1.1.9-2.1 2.1-2.1H52c1.1 0 2.1.9 2.1 2.1v1c0 1.1-1 2.1-2.1 2.1z" fill="#666"/><path d="M59 31.2H15.3c-4.1 0-7.3 3.3-7.3 7.3v8.4c0 4.1 3.3 7.3 7.3 7.3H59c4.1 0 7.3-3.3 7.3-7.3v-8.4c.1-4-3.2-7.3-7.3-7.3z" fill="#e0e0e0"/><path fill="#f8b26a" d="M7.9 54.7h59.7v7.1H7.9z"/><path d="M11.4 56.6H7.8c-.2 0-.3.1-.3.3v3c0 .2.2.4.4.4h3.7c.9 0 1.6-.7 1.6-1.6v-.4c-.1-.9-.8-1.7-1.8-1.7z" fill="#e15b64"/><path d="M89.2 65.9H69.5c-1.4 0-2.5-1.1-2.5-2.5l.1-27.7c0-1.4 1.1-2.5 2.5-2.5h11.6c.9 0 1.8.5 2.2 1.3l8 14.5c.2.4.3.8.3 1.2v13.2c.1 1.3-1.1 2.5-2.5 2.5z" fill="#f8b26a"/><path d="M75.5 61.9h-66s-.3 0-.3.4c0 2.2 1.2 3.6 2.9 3.6h63.3c.9 0 1.6-.9 1.6-2s-.7-2-1.5-2z" fill="#666"/><g><circle cx="23.7" cy="64" r="6.6" fill="#fff"/><path d="M23.7 58.7c2.9 0 5.3 2.4 5.3 5.3s-2.4 5.3-5.3 5.3-5.3-2.4-5.3-5.3 2.4-5.3 5.3-5.3m0-2.7c-4.4 0-8 3.6-8 8s3.6 8 8 8 8-3.6 8-8-3.6-8-8-8z" fill="#333"/></g><g><circle cx="23.7" cy="64" r="3.6" fill="#e6e6e6"/></g><g><circle cx="74.9" cy="64" r="6.6" fill="#fff"/><path d="M74.9 58.7c2.9 0 5.3 2.4 5.3 5.3s-2.4 5.3-5.3 5.3-5.3-2.4-5.3-5.3 2.4-5.3 5.3-5.3m0-2.7c-4.4 0-8 3.6-8 8s3.6 8 8 8 8-3.6 8-8-3.6-8-8-8z" fill="#333"/></g><g><circle cx="74.9" cy="64" r="3.6" fill="#e6e6e6"/></g><path d="M87.5 57.5h4c.6 0 1-.5 1-1v-1.7c0-.6-.5-1-1-1h-3.9c-.3 0-.5.2-.5.5v2.9c0 .1.2.3.4.3z" fill="#e0e0e0"/><path d="M82 36.4c-.4-.7-1-1.1-1.8-1.1H71c-1.1 0-2 .9-2 2.1l-.1 12.1h20.3c0-.2-.1-.4-.2-.5l-7-12.6z" fill="#333"/><path d="M73.9 53.3h-3.1c-.5 0-.8-.4-.8-.8 0-.5.4-.8.8-.8h3.1c.5 0 .8.4.8.8.1.4-.3.8-.8.8z" fill="#f47e60"/><path fill="none" stroke="#fff" stroke-width="3.504" stroke-linecap="round" stroke-miterlimit="10" d="M19.4 47.2h35"/><metadata xmlns:d="https://loading.io/stock/"><d:name>tanker</d:name><d:tags>water,gas,gasoline,diesel,truck,oil,tanker,transportation</d:tags><d:license>by</d:license><d:slug>4rzxk7</d:slug></metadata></svg>