<?xml version="1.0"?>
<svg version="1.1" id="圖層_1" xmlns="http://www.w3.org/2000/svg" x="0" y="0" viewBox="0 0 100 100" xml:space="preserve"><g><circle cx="21.1" cy="61.7" r="13.6" fill="#fff" stroke="#333" stroke-width="3.855" stroke-miterlimit="10"/><circle cx="21.1" cy="61.7" r="5" fill="#e0e0e0"/></g><g><circle cx="78.9" cy="61.7" r="13.6" fill="#fff" stroke="#333" stroke-width="3.855" stroke-miterlimit="10"/><circle cx="78.9" cy="61.7" r="5" fill="#e0e0e0"/></g><g><path d="M80.3 61L63.7 24.1c-.3-.8-1.3-1.1-2-.8-.8.3-1.1 1.3-.8 2l6.3 14H37.5L35 33.7 32.2 35l2.8 6.2-14.2 18.4c-.5.7-.6 1.6-.2 2.3.4.8 1.1 1.2 2 1.2h23.3l1-.4 22.3-19.1 8.3 18.5c.3.6.8.9 1.4.9.2 0 .4 0 .6-.1.8-.2 1.2-1.1.8-1.9zM36.4 44.4l7.1 15.8H24.3l12.1-15.8zm10 14.8l-7.5-16.7h27L46.4 59.2z" fill="#77a4bd"/><path fill="none" stroke="#c33737" stroke-width="3.084" stroke-linecap="round" stroke-linejoin="bevel" stroke-miterlimit="10" d="M28.9 34.4h10.4"/><circle cx="45.5" cy="61" r="6.5" fill="#a0c8d7" stroke="#77a4bd" stroke-width="2.5" stroke-miterlimit="10"/><path fill="none" stroke="#c33737" stroke-width="3.084" stroke-linecap="round" stroke-linejoin="bevel" stroke-miterlimit="10" d="M62.3 24.8h9.1"/></g><metadata xmlns:d="https://loading.io/stock/"><d:name>bike</d:name><d:tags>bicycle,cycling,ride,bike,transportation</d:tags><d:license>by</d:license><d:slug>5c9ekv</d:slug></metadata></svg>