<?xml version="1.0"?><svg version="1.1" id="圖層_1" xmlns="http://www.w3.org/2000/svg" x="0" y="0" viewBox="0 0 100 100" xml:space="preserve"><path d="M9.4 66h55.3V25.4H12.9c-2 0-3.5 1.6-3.5 3.5V66z" fill="#e0e0e0"/><path d="M88.9 69.5H66.8c-1.6 0-2.8-1.5-2.8-3.4l.1-37.4c-.1-3.4-.1-3.4 2.8-3.4h13c1 0 2 .7 2.5 1.8l8.9 19.5c.2.5.3 1.1.3 1.6V66c.1 2-1.2 3.5-2.7 3.5z" fill="#e0e0e0"/><path d="M73.5 65.1H9.7s-.3 0-.3.4c0 2.4 1.3 4 3.3 4h60.8c1 0 1.7-1 1.7-2.2 0-1.2-.8-2.2-1.7-2.2z" fill="#e0e0e0"/><path d="M80.8 29.8c-.4-.9-1.1-1.4-2-1.4H68.5c-1.2 0-2.2 1.2-2.2 2.8l-.1 16.3h22.7c0-.3-.1-.5-.2-.7l-7.9-17z" fill="#333"/><path d="M71.8 52.6h-3.5c-.5 0-.9-.4-.9-.9s.4-.9.9-.9h3.5c.5 0 .9.4.9.9 0 .4-.4.9-.9.9z" fill="#666"/><path fill="#e15b64" d="M9.4 59.1h82.3v5.1H9.4z"/><g><path d="M86.9 61.1h4.4c.6 0 1.1-.5 1.1-1.1v-1.9c0-.6-.5-1.1-1.1-1.1H87c-.3 0-.5.2-.5.5v3.2c0 .2.2.4.4.4z" fill="#fff"/></g><g><path d="M13.3 56.9h-4c-.2 0-.4.2-.4.4v3.4c0 .2.2.4.4.4h4.1c1 0 1.8-.8 1.8-1.8v-.5c0-1-.9-1.9-1.9-1.9z" fill="#d50d01"/></g><g><circle cx="25.6" cy="67.4" r="7.4" fill="#fff"/><path d="M25.6 61.5c3.3 0 5.9 2.7 5.9 5.9s-2.7 5.9-5.9 5.9c-3.3 0-5.9-2.7-5.9-5.9s2.7-5.9 5.9-5.9m0-3c-4.9 0-8.9 4-8.9 8.9s4 8.9 8.9 8.9 8.9-4 8.9-8.9-3.9-8.9-8.9-8.9z" fill="#333"/></g><g><circle cx="25.6" cy="67.4" r="4" fill="#e6e6e6"/></g><g><circle cx="72.9" cy="67.4" r="7.4" fill="#fff"/><path d="M72.9 61.5c3.3 0 5.9 2.7 5.9 5.9s-2.7 5.9-5.9 5.9-5.9-2.6-5.9-5.9 2.6-5.9 5.9-5.9m0-3c-4.9 0-8.9 4-8.9 8.9s4 8.9 8.9 8.9 8.9-4 8.9-8.9-4-8.9-8.9-8.9z" fill="#333"/></g><g><circle cx="72.9" cy="67.4" r="4" fill="#e6e6e6"/></g><path d="M77.3 24.6h-7.4v-3.5c0-2 1.7-3.7 3.7-3.7s3.7 1.7 3.7 3.7v3.5z" fill="#e15b64"/><path d="M71.1 19.6c.4-.6 1-1 1.6-1.3" fill="#666" stroke="#fff" stroke-width=".583" stroke-linecap="round" stroke-miterlimit="10"/><path d="M70.7 21v-.4" fill="#666" stroke="#fff" stroke-width=".583" stroke-linecap="round" stroke-miterlimit="10"/><path d="M78.3 25.3h-9.5v-.9c0-.6.5-1.1 1.1-1.1h7.2c.6 0 1.1.5 1.1 1.1v.9z" fill="#333"/><path fill="#e15b64" d="M9.4 31.8h56.8v3.5H9.4z"/><path fill="#e15b64" d="M29.2 43.7h-5v-5h-4v5h-5v4h5v5h4v-5h5z"/><path d="M58.4 55.3c-.7 0-1.2-.6-1.2-1.2V39.2c0-.7.6-1.2 1.2-1.2.7 0 1.2.6 1.2 1.2v14.9c0 .7-.5 1.2-1.2 1.2z" fill="#666"/><path d="M37.8 55.3c-.7 0-1.2-.6-1.2-1.2V39.2c0-.7.6-1.2 1.2-1.2.7 0 1.2.6 1.2 1.2v14.9c0 .7-.5 1.2-1.2 1.2z" fill="#666"/><metadata xmlns:d="https://loading.io/stock/">
<d:name>ambulance</d:name>
<d:tags>911,emergency,hospital,nurse,doctor,aed,first aid,clinic,ambulance,transportation</d:tags>
<d:license>by</d:license>
<d:slug>68zifz</d:slug>
</metadata></svg>