<?xml version="1.0"?>
<svg version="1.1" id="圖層_1" xmlns="http://www.w3.org/2000/svg" x="0" y="0" viewBox="0 0 100 100" xml:space="preserve"><g><path d="M35.562 95a3.138 3.138 0 0 1-3.138-3.138V69.701a3.138 3.138 0 0 1 6.276 0v22.162A3.138 3.138 0 0 1 35.562 95z" fill="#ed1e79"/></g><g><path d="M47.329 83.135H23.795a3.138 3.138 0 0 1 0-6.276h23.534a3.138 3.138 0 0 1 0 6.276z" fill="#ed1e79"/></g><path d="M67.332 23.483c-8.191-8.191-21.518-8.191-29.709 0a20.876 20.876 0 0 0-2.588 3.168c.176-.004.35-.013.527-.013 2.316 0 4.551.349 6.659.992 5.803-5.559 15.04-5.495 20.749.215 5.786 5.786 5.786 15.201 0 20.987a14.757 14.757 0 0 1-4.683 3.158 14.408 14.408 0 0 1-3.136.937 14.917 14.917 0 0 1-3.408.209 15.154 15.154 0 0 1-1.502-.15 15.152 15.152 0 0 1-1.455-.303 14.68 14.68 0 0 1-6.802-3.851c-3.466-3.466-4.835-8.23-4.147-12.74a13.544 13.544 0 0 0-2.275-.206 13.55 13.55 0 0 0-3.988.599c-.526 5.98 1.482 12.142 6.049 16.708a20.868 20.868 0 0 0 8.317 5.101c.51.166 1.024.318 1.543.444.537.131 1.079.234 1.623.322a21.202 21.202 0 0 0 7.258-.087 20.89 20.89 0 0 0 10.969-5.78c8.189-8.192 8.189-21.519-.001-29.71z" fill="#0071bc"/><path d="M52.477 51.684c1.528 0 3.01-.268 4.409-.755a21.1 21.1 0 0 0 .053-1.429c0-9.308-5.983-17.239-14.304-20.165-.512-.18-1.03-.346-1.559-.487a21.339 21.339 0 0 0-1.602-.356 21.284 21.284 0 0 0-3.64-.36c-.091-.001-.181-.009-.272-.009a21.597 21.597 0 0 0-3.257.259c-10.246 1.574-18.12 10.439-18.12 21.118 0 11.788 9.59 21.377 21.377 21.377 7.644 0 14.351-4.04 18.13-10.089a22.66 22.66 0 0 1-7.297-.798c-2.745 2.839-6.582 4.612-10.833 4.612-8.327 0-15.101-6.775-15.101-15.101 0-6.429 4.05-11.909 9.725-14.081.516-.197 1.04-.378 1.58-.518.51-.133 1.031-.236 1.559-.319.73-.114 1.475-.183 2.237-.183.364 0 .721.024 1.077.053.502.04.999.098 1.488.182.491.085.972.198 1.446.329 6.383 1.762 11.091 7.602 11.091 14.538 0 .689-.056 1.363-.15 2.026.645.092 1.298.156 1.963.156z" fill="#ed1e79"/><g><path d="M82.731 8.084a3.084 3.084 0 0 1 0 4.361L68.694 26.481a3.084 3.084 0 0 1-4.361-4.361L78.37 8.084a3.082 3.082 0 0 1 4.361 0z" fill="#0071bc"/></g><g><path d="M85.815 8.084v19.293a3.084 3.084 0 1 1-6.167 0V14.251a3.084 3.084 0 0 0-3.084-3.084H63.439a3.085 3.085 0 0 1 0-6.167h19.292a3.084 3.084 0 0 1 3.084 3.084z" fill="#0071bc"/></g><metadata xmlns:d="https://loading.io/stock/"><d:name>heterosexual</d:name><d:tags>gender,sex,heterosexual,people</d:tags><d:license>by</d:license><d:slug>8xl9st</d:slug></metadata></svg>