<?xml version="1.0"?>
<svg version="1.1" id="圖層_1" xmlns="http://www.w3.org/2000/svg" x="0" y="0" viewBox="0 0 100 100" xml:space="preserve"><path fill="#849b87" d="M12.9 45H29v9.4H12.9z"/><path fill="#f47e60" d="M29 45h16.1v9.4H29z"/><path fill="#abbd81" d="M45.1 45h16.1v9.4H45.1z"/><path fill="#f8b26a" d="M61.1 45h16.1v9.4H61.1z"/><path fill="#abbd81" d="M12.9 35.6H29V45H12.9z"/><path fill="#f8b26a" d="M29 35.6h16.1V45H29z"/><path fill="#f47e60" d="M45.1 35.6h16.1V45H45.1z"/><path fill="#849b87" d="M61.1 35.6h16.1V45H61.1z"/><path fill="#f8b26a" d="M12.9 26.2H29v9.4H12.9z"/><path fill="#abbd81" d="M29 26.2h16.1v9.4H29z"/><path fill="#849b87" d="M45.1 26.2h16.1v9.4H45.1z"/><path d="M92 51.2c1.5-2.4-.2-5.4-3-5.4H69.7c-1.3 0-2.5.9-2.9 2.2l-1 3.5c-.4 1.3-1.5 2.2-2.9 2.2H26.2c-1.3 0-2.5-.9-2.9-2.2l-1-3.5c-.4-1.3-1.5-2.2-2.9-2.2h-8.3c-2.2 0-4 1.9-3.7 4.2l1.8 15.4H83l9-14.2z" fill="#333"/><path d="M15.6 73.8h59.1c2 0 3.9-1.1 5-2.8l3.5-5.7H9.4l.4 3.3c.3 3 2.8 5.2 5.8 5.2z" fill="#e15b64"/><circle cx="78.4" cy="55.3" r="3.3" fill="#e0e0e0"/><path fill="none" stroke="#e0e0e0" stroke-width="3" stroke-linecap="round" stroke-miterlimit="10" d="M30.7 59.2h27.7"/><metadata xmlns:d="https://loading.io/stock/"><d:name>cargo ship</d:name><d:tags>container,express,shipping,sea,ocean,ship,carrier,cargo ship,transportation</d:tags><d:license>by</d:license><d:slug>cp4x2</d:slug></metadata></svg>