<?xml version="1.0"?><svg version="1.1" id="圖層_1" xmlns="http://www.w3.org/2000/svg" x="0" y="0" viewBox="0 0 100 100" xml:space="preserve"><path d="M39.3 13.8c0 5.9 4.8 10.7 10.7 10.7s10.7-4.8 10.7-10.7v-3c-6.8-.9-14.6-.9-21.4 0v3z" fill="#f47e60" stroke="#333" stroke-width="3" stroke-miterlimit="10"/><path d="M73.4 63.2c-1.1-3-2.5-6.1-4.1-9.4-4.5-8.8-3.6-16.6-1.1-23.5l4 13 13-4L80.5 24C76.2 5.6 59.6 7.7 58.7 7.5v5.6c0 4.8-3.9 8.7-8.7 8.7s-8.7-3.9-8.7-8.7V7.5c-.9.2-17.5-1.9-21.8 16.6l-4.7 15.3 13 4 4-13c2.5 6.9 3.4 14.7-1.1 23.5-1.7 3.3-3.1 6.4-4.1 9.4-.7 1.9-1.3 3.7-1.7 5.5-1.5 6-1.5 11.5 0 16.9.6 2.3 1.6 4.5 2.8 6.8h44.6c1.2-2.3 2.1-4.5 2.8-6.8 1.5-5.4 1.5-10.9 0-16.9-.4-1.8-1-3.7-1.7-5.6z" fill="#f8b26a" stroke="#333" stroke-width="3" stroke-miterlimit="10"/><g><path fill="#e15b64" stroke-linecap="round" stroke-linejoin="round" stroke="#333" stroke-width="3" stroke-miterlimit="10" d="M46.5 66.8l-2.6-5.7-5.3 3.3 6.5-18.8 6.3 1.9z"/><path fill="#e15b64" stroke-linecap="round" stroke-linejoin="round" stroke="#333" stroke-width="3" stroke-miterlimit="10" d="M53.5 66.8l2.6-5.7 5.3 3.3-6.5-18.8-6.3 1.9z"/><path d="M66.1 51H33.9c-2 0-3.5-1.6-3.5-3.5v-1.9c0-2 1.6-3.5 3.5-3.5h32.2c2 0 3.5 1.6 3.5 3.5v1.9c0 2-1.6 3.5-3.5 3.5z" fill="#e15b64" stroke-linecap="round" stroke-linejoin="round" stroke="#333" stroke-width="3" stroke-miterlimit="10"/><path d="M37.3 41.4v10.3c0 2.4 2.5 3.9 4.6 2.8l5.6-3.4v-9l-5.6-3.4c-2.1-1.2-4.6.4-4.6 2.7z" fill="#e15b64" stroke-linecap="round" stroke-linejoin="round" stroke="#333" stroke-width="3" stroke-miterlimit="10"/><path d="M58.1 38.6L52.5 42v9l5.6 3.4c2.1 1.1 4.6-.4 4.6-2.8V41.4c0-2.3-2.5-3.9-4.6-2.8z" fill="#e15b64" stroke-linecap="round" stroke-linejoin="round" stroke="#333" stroke-width="3" stroke-miterlimit="10"/><path fill="#e15b64" stroke-linecap="round" stroke-linejoin="round" stroke="#333" stroke-width="3" stroke-miterlimit="10" d="M47.5 42.1h4.9v9h-4.9z"/></g><metadata xmlns:d="https://loading.io/stock/">
<d:name>jumper dresses</d:name>
<d:tags>jumper dresses,shift dresses,jacket,blouse,pinny,clothing</d:tags>
<d:license>by</d:license>
<d:slug>cpe19y</d:slug>
</metadata></svg>