<?xml version="1.0"?>
<svg version="1.1" id="圖層_1" xmlns="http://www.w3.org/2000/svg" x="0" y="0" viewBox="0 0 100 100" xml:space="preserve"><path fill="#a0c8d7" stroke="#333" stroke-width="2.661" stroke-linejoin="round" stroke-miterlimit="10" d="M50 10L20.9 30h0L50 50z"/><path fill="#77a4bd" stroke="#333" stroke-width="2.661" stroke-linejoin="round" stroke-miterlimit="10" d="M20.9 30v40h0L50 50z"/><path fill="#e0e0e0" stroke="#333" stroke-width="2.661" stroke-linejoin="round" stroke-miterlimit="10" d="M79.1 30h0L50 10v40z"/><path fill="#a0c8d7" stroke="#333" stroke-width="2.661" stroke-linejoin="round" stroke-miterlimit="10" d="M79.1 30L50 50l29.1 20h0z"/><path fill="#77a4bd" stroke="#333" stroke-width="2.661" stroke-linejoin="round" stroke-miterlimit="10" d="M50 90l29.1-20L50 50z"/><path fill="#666" stroke="#333" stroke-width="2.661" stroke-linejoin="round" stroke-miterlimit="10" d="M20.9 70L50 90V50z"/><path fill="#fff" stroke="#333" stroke-width="2.557" stroke-linejoin="round" stroke-miterlimit="10" d="M50 25.8L33.8 37.9v24.2L50 74.2l16.2-12.1V37.9z"/><path fill="none" d="M35 61.5l15 11.1 15-11.1V40.4L35 61.3z"/><path fill="none" d="M60.5 35.2L35 53v3.1l27.6-19.3z"/><path fill="none" d="M50 27.4L35 38.5v5.4l19.2-13.4z"/><path fill="#a0c8d7" d="M54.2 30.5L35 43.9V53l25.5-17.8z"/><path fill="#a0c8d7" d="M62.6 36.8L35 56.1v5.2l30-20.9v-1.9z"/><metadata xmlns:d="https://loading.io/stock/"><d:name>ruby</d:name><d:tags>gem,jewelry,money,treasure,value,luxury,ruby,ruby,web application</d:tags><d:license>pro</d:license><d:slug>dciq66</d:slug></metadata></svg>