<?xml version="1.0"?>
<svg version="1.1" id="圖層_1" xmlns="http://www.w3.org/2000/svg" x="0" y="0" viewBox="0 0 100 100" xml:space="preserve"><path d="M15 64.3h40.5c3.1 0 5.6-2.5 5.6-5.6V31c0-3.1-2.5-5.6-5.6-5.6H15c-3.1 0-5.6 2.5-5.6 5.6v27.7c0 3.1 2.5 5.6 5.6 5.6z" fill="#f5e6c8"/><path d="M51.5 58.5c-.5 0-1-.4-1-1V24.6c0-.5.4-1 1-1 .5 0 1 .4 1 1v32.9c0 .6-.4 1-1 1z" fill="#66503a"/><path d="M40.6 58.5c-.5 0-1-.4-1-1V24.6c0-.5.4-1 1-1 .5 0 1 .4 1 1v32.9c0 .6-.4 1-1 1z" fill="#66503a"/><path d="M29.7 58.5c-.5 0-1-.4-1-1V24.6c0-.5.4-1 1-1 .5 0 1 .4 1 1v32.9c0 .6-.4 1-1 1z" fill="#66503a"/><path d="M18.8 58.5c-.5 0-1-.4-1-1V24.6c0-.5.4-1 1-1 .5 0 1 .4 1 1v32.9c0 .6-.4 1-1 1z" fill="#66503a"/><path fill="#4d85ab" d="M7.9 57.1h56.7v8H7.9z"/><path d="M11.9 59.2h-4c-.2 0-.4.2-.4.4V63c0 .2.2.4.4.4H12c1 0 1.8-.8 1.8-1.8v-.5c0-1-.9-1.9-1.9-1.9z" fill="#e15b64"/><path d="M88.9 69.5H66.8c-1.6 0-2.8-1.3-2.8-2.8l.1-31c0-1.6 1.3-2.8 2.8-2.8h13c1 0 2 .6 2.5 1.5l8.9 16.2c.2.4.3.9.3 1.4v14.8c.1 1.5-1.2 2.7-2.7 2.7z" fill="#77a4bd"/><path d="M73.5 65.1H9.7s-.3 0-.3.4c0 2.4 1.3 4 3.3 4h60.8c1 0 1.7-1 1.7-2.2 0-1.2-.8-2.2-1.7-2.2z" fill="#666"/><g><circle cx="25.6" cy="67.4" r="7.4" fill="#fff"/><path d="M25.6 61.5c3.3 0 5.9 2.7 5.9 5.9s-2.7 5.9-5.9 5.9-5.9-2.7-5.9-5.9 2.7-5.9 5.9-5.9m0-3c-4.9 0-8.9 4-8.9 8.9s4 8.9 8.9 8.9 8.9-4 8.9-8.9-3.9-8.9-8.9-8.9z" fill="#333"/></g><g><circle cx="25.6" cy="67.4" r="4" fill="#e6e6e6"/></g><g><circle cx="72.9" cy="67.4" r="7.4" fill="#fff"/><path d="M72.9 61.5c3.3 0 5.9 2.7 5.9 5.9s-2.7 5.9-5.9 5.9-5.9-2.6-5.9-5.9 2.6-5.9 5.9-5.9m0-3c-4.9 0-8.9 4-8.9 8.9s4 8.9 8.9 8.9 8.9-4 8.9-8.9-4-8.9-8.9-8.9z" fill="#333"/></g><g><circle cx="72.9" cy="67.4" r="4" fill="#e6e6e6"/></g><path d="M86.9 60.1h4.4c.6 0 1.1-.5 1.1-1.1v-1.9c0-.6-.5-1.1-1.1-1.1H87c-.3 0-.5.2-.5.5v3.2c0 .2.2.4.4.4z" fill="#e0e0e0"/><path d="M80.8 36.6c-.4-.7-1.1-1.2-2-1.2H68.5c-1.2 0-2.2 1-2.2 2.3l-.1 13.5h22.7c0-.2-.1-.4-.2-.6l-7.9-14z" fill="#333"/><path d="M71.8 55.5h-3.5c-.5 0-.9-.4-.9-.9s.4-.9.9-.9h3.5c.5 0 .9.4.9.9s-.4.9-.9.9z" fill="#4d85ab"/><metadata xmlns:d="https://loading.io/stock/"><d:name>truck</d:name><d:tags>van,cargo,cab,car,ship,loader,wagon,vehicle,good,express,settle,truck,transportation</d:tags><d:license>by</d:license><d:slug>doszq1</d:slug></metadata></svg>