<?xml version="1.0"?>
<svg version="1.1" id="圖層_1" xmlns="http://www.w3.org/2000/svg" x="0" y="0" viewBox="0 0 100 100" xml:space="preserve"><path d="M82.8 27.6h-2.3c-.9 0-1.6.7-1.6 1.6v.5h-3.2v1.9h3.2v4c0 .9.7 1.6 1.6 1.6h2.3c.9 0 1.6-.7 1.6-1.6v-6.4c-.1-.9-.8-1.6-1.6-1.6z" fill="#666"/><path d="M75.5 27c-.2-1.2-1.2-2.1-2.4-2.1H12.5c-2 0-3.7 1.6-3.7 3.7v36h52.3v1.5c0 1.5 1.2 2.7 2.6 2.7H88c1.5 0 2.6-1.2 2.6-2.7V49.7c0-1.2-.7-2.2-1.8-2.5l-8-1.7c-.8-.3-1.4-.9-1.5-1.8-.5-4.2-3.2-13-3.8-16.7z" fill="#f5e169"/><path d="M12.6 59.1H8.8c-.2 0-.3.2-.3.4v3.2c0 .2.2.4.4.4h3.8c.9 0 1.6-.7 1.6-1.7V61c0-1.1-.8-1.9-1.7-1.9z" fill="#e15b64"/><path d="M90.3 64.6H7.9s-.4 0-.4.4c0 2.3 1.7 3.8 4.2 3.8h78.5c1.2 0 2.2-.9 2.2-2.1.1-1.2-.9-2.1-2.1-2.1z" fill="#666"/><g><circle cx="25.4" cy="66.8" r="6.9" fill="#fff"/><path d="M25.4 61.3c3 0 5.5 2.5 5.5 5.5s-2.5 5.5-5.5 5.5-5.5-2.5-5.5-5.5 2.5-5.5 5.5-5.5m0-2.8c-4.6 0-8.3 3.7-8.3 8.3 0 4.6 3.7 8.3 8.3 8.3 4.6 0 8.3-3.7 8.3-8.3 0-4.6-3.7-8.3-8.3-8.3z" fill="#333"/></g><g><circle cx="25.4" cy="66.8" r="3.7" fill="#e6e6e6"/></g><g><circle cx="75.1" cy="66.8" r="6.9" fill="#fff"/><path d="M75.1 61.3c3 0 5.5 2.5 5.5 5.5s-2.5 5.5-5.5 5.5-5.5-2.5-5.5-5.5 2.5-5.5 5.5-5.5m0-2.8c-4.6 0-8.3 3.7-8.3 8.3 0 4.6 3.7 8.3 8.3 8.3s8.3-3.7 8.3-8.3c0-4.6-3.7-8.3-8.3-8.3z" fill="#333"/></g><g><circle cx="75.1" cy="66.8" r="3.7" fill="#e6e6e6"/></g><path d="M86.4 60h4.1c.6 0 1.1-.5 1.1-1.1v-1.8c0-.6-.5-1.1-1.1-1.1h-4c-.3 0-.5.2-.5.5v3c-.1.3.1.5.4.5z" fill="#e0e0e0"/><path d="M73.2 29.2c-.4-1-1-1.6-1.8-1.6H66c-1.1 0-2 1.4-2 3.1V42c0 1.2.9 2.1 2.1 2.1h7.5c1.3 0 2.3-1.1 2.1-2.4-.8-5.3-2.5-12.5-2.5-12.5z" fill="#333"/><path d="M53 63.1h6c1.1 0 2.1-.9 2.1-2.1V29.6c0-1.1-.9-2.1-2.1-2.1h-6c-1.1 0-2.1.9-2.1 2.1V61c.1 1.1 1 2.1 2.1 2.1z" fill="#f47e60"/><path d="M39.5 44.1h6.9c.9 0 1.6-.7 1.6-1.6V29.2c0-.9-.7-1.6-1.6-1.6h-6.9c-.9 0-1.6.7-1.6 1.6v13.3c0 .9.7 1.6 1.6 1.6z" fill="#333"/><path d="M26.4 44.1h6.9c.9 0 1.6-.7 1.6-1.6V29.2c0-.9-.7-1.6-1.6-1.6h-6.9c-.9 0-1.6.7-1.6 1.6v13.3c0 .9.7 1.6 1.6 1.6z" fill="#333"/><path d="M13.3 44.1h6.9c.9 0 1.6-.7 1.6-1.6V29.2c0-.9-.7-1.6-1.6-1.6h-6.9c-.9 0-1.6.7-1.6 1.6v13.3c0 .9.8 1.6 1.6 1.6z" fill="#333"/><path fill="none" stroke="#f8b26a" stroke-width="2.694" stroke-linecap="round" stroke-miterlimit="10" d="M12.8 48.9h34.3"/><metadata xmlns:d="https://loading.io/stock/"><d:name>truck</d:name><d:tags>school bus,tour,wagon,suv,cargo,ship,goods,truck,transportation</d:tags><d:license>by</d:license><d:slug>e64uqd</d:slug></metadata></svg>