<?xml version="1.0"?><svg version="1.1" id="圖層_1" xmlns="http://www.w3.org/2000/svg" x="0" y="0" viewBox="0 0 100 100" xml:space="preserve"><g><path d="M62.5 30.5l-25 43.3c3.7 2.2 8.1 3.5 12.7 3.5 13.8 0 25-11.2 25-25 .1-9.4-5.1-17.6-12.7-21.8z" fill="#f47e60"/><path d="M50.3 27.2c-13.8 0-25 11.2-25 25 0 9.1 4.9 17.1 12.3 21.5l25-43.3c-3.7-2-7.9-3.2-12.3-3.2z" fill="#f8b26a"/><path d="M58 38.3L42 66c2.4 1.5 5.2 2.3 8.2 2.3 8.8 0 16-7.2 16-16 .1-6.1-3.2-11.3-8.2-14z" fill="#ffdc6c"/><path d="M50.3 36.2c-8.8 0-16 7.2-16 16 0 5.8 3.1 10.9 7.8 13.7l16-27.7c-2.4-1.2-5-2-7.8-2z" fill="#f5e6c8"/></g><g><path d="M71.4 80.5s-2.7-1.8-2.7-4.1 2.7-4.1 2.7-4.1 2.7 1.8 2.7 4.1c0 2.2-2.7 4.1-2.7 4.1z" fill="#f5e169"/><path d="M73.9 77.4s1.8 2.7 4.1 2.7 4.1-2.7 4.1-2.7-1.8-2.7-4.1-2.7c-2.2 0-4.1 2.7-4.1 2.7z" fill="#f5e169"/><path d="M78 74s-3.1-1.1-3.7-3.3c-.6-2.2 1.5-4.7 1.5-4.7s3.1 1.1 3.7 3.3C80.2 71.5 78 74 78 74z" fill="#f5e169"/><path d="M79.7 70.4s2.5 2.1 4.7 1.5c2.2-.6 3.3-3.7 3.3-3.7s-2.5-2.1-4.7-1.5c-2.3.6-3.3 3.7-3.3 3.7z" fill="#f5e169"/><path d="M82.8 66.1s-3.2-.2-4.4-2.2.3-4.9.3-4.9 3.2.2 4.4 2.2c1.1 1.9-.3 4.9-.3 4.9z" fill="#f5e169"/><path d="M83.4 62.1s2.9 1.4 4.9.3c2-1.1 2.2-4.4 2.2-4.4s-2.9-1.4-4.9-.3c-2 1.2-2.2 4.4-2.2 4.4z" fill="#f5e169"/><path d="M85.3 57.1s-3.2.6-4.8-1c-1.6-1.6-1-4.8-1-4.8s3.2-.6 4.8 1 1 4.8 1 4.8z" fill="#f5e169"/><path d="M84.8 53.2s3.2.6 4.8-1c1.6-1.6 1-4.8 1-4.8s-3.2-.6-4.8 1c-1.6 1.6-1 4.8-1 4.8z" fill="#f5e169"/><path d="M85.4 47.9s-2.9 1.4-4.9.3c-2-1.1-2.2-4.4-2.2-4.4s2.9-1.4 4.9-.3c1.9 1.1 2.2 4.4 2.2 4.4z" fill="#f5e169"/><path d="M83.9 44.2s3.2-.2 4.4-2.2c1.1-2-.3-5-.3-5s-3.2.2-4.4 2.2c-1.1 2 .3 5 .3 5z" fill="#f5e169"/><path d="M83.1 38.9s-2.5 2.1-4.7 1.5c-2.2-.6-3.3-3.7-3.3-3.7s2.5-2.1 4.7-1.5c2.2.7 3.3 3.7 3.3 3.7z" fill="#f5e169"/><path d="M80.7 35.7s3.1-1.1 3.7-3.3-1.5-4.7-1.5-4.7-3.1 1.1-3.7 3.3c-.6 2.2 1.5 4.7 1.5 4.7z" fill="#f5e169"/><path d="M78.5 30.9s-1.8 2.7-4.1 2.7-4.1-2.7-4.1-2.7 1.8-2.7 4.1-2.7 4.1 2.7 4.1 2.7z" fill="#f5e169"/><path d="M75.4 28.4s2.7-1.8 2.7-4.1-2.7-4.1-2.7-4.1-2.7 1.8-2.7 4.1 2.7 4.1 2.7 4.1z" fill="#f5e169"/><path d="M72.1 24.2s-1.1 3.1-3.3 3.7-4.7-1.5-4.7-1.5 1.1-3.1 3.3-3.7c2.2-.6 4.7 1.5 4.7 1.5z" fill="#f5e169"/><path d="M68.4 22.6s2.1-2.5 1.5-4.7-3.7-3.3-3.7-3.3-2.1 2.5-1.5 4.7 3.7 3.3 3.7 3.3z" fill="#f5e169"/><path d="M68.6 22.3c10 6.2 16.6 17.2 16.6 29.8 0 15.4-10 28.5-23.8 33.2" fill="none" stroke="#f5e169" stroke-miterlimit="10"/></g><g><path d="M28.6 80.5s2.7-1.8 2.7-4.1-2.7-4.1-2.7-4.1-2.7 1.8-2.7 4.1c0 2.2 2.7 4.1 2.7 4.1z" fill="#f5e169"/><path d="M26.1 77.4s-1.8 2.7-4.1 2.7-4.1-2.7-4.1-2.7 1.8-2.7 4.1-2.7 4.1 2.7 4.1 2.7z" fill="#f5e169"/><path d="M22 74s3.1-1.1 3.7-3.3c.6-2.2-1.5-4.7-1.5-4.7s-3.1 1.1-3.7 3.3C19.8 71.5 22 74 22 74z" fill="#f5e169"/><path d="M20.3 70.4s-2.5 2.1-4.7 1.5-3.3-3.7-3.3-3.7 2.5-2.1 4.7-1.5 3.3 3.7 3.3 3.7z" fill="#f5e169"/><path d="M17.2 66.1s3.2-.2 4.4-2.2c1.1-2-.3-4.9-.3-4.9s-3.2.2-4.4 2.2c-1.1 1.9.3 4.9.3 4.9z" fill="#f5e169"/><path d="M16.6 62.1s-2.9 1.4-4.9.3c-2-1.1-2.2-4.4-2.2-4.4s2.9-1.4 4.9-.3c2 1.2 2.2 4.4 2.2 4.4z" fill="#f5e169"/><path d="M14.7 57.1s3.2.6 4.8-1c1.6-1.6 1-4.8 1-4.8s-3.2-.6-4.8 1-1 4.8-1 4.8z" fill="#f5e169"/><path d="M15.2 53.2s-3.2.6-4.8-1-1-4.8-1-4.8 3.2-.6 4.8 1 1 4.8 1 4.8z" fill="#f5e169"/><path d="M14.6 47.9s2.9 1.4 4.9.3c2-1.1 2.2-4.4 2.2-4.4s-2.9-1.4-4.9-.3c-1.9 1.1-2.2 4.4-2.2 4.4z" fill="#f5e169"/><path d="M16.1 44.2s-3.2-.2-4.4-2.2c-1.1-2 .3-5 .3-5s3.2.2 4.4 2.2c1.1 2-.3 5-.3 5z" fill="#f5e169"/><path d="M16.9 38.9s2.5 2.1 4.7 1.5c2.2-.6 3.3-3.7 3.3-3.7s-2.5-2.1-4.7-1.5c-2.2.7-3.3 3.7-3.3 3.7z" fill="#f5e169"/><path d="M19.3 35.7s-3.1-1.1-3.7-3.3 1.5-4.7 1.5-4.7 3.1 1.1 3.7 3.3c.6 2.2-1.5 4.7-1.5 4.7z" fill="#f5e169"/><path d="M21.5 30.9s1.8 2.7 4.1 2.7 4.1-2.7 4.1-2.7-1.8-2.7-4.1-2.7-4.1 2.7-4.1 2.7z" fill="#f5e169"/><path d="M24.6 28.4s-2.7-1.8-2.7-4.1 2.7-4.1 2.7-4.1 2.7 1.8 2.7 4.1c0 2.2-2.7 4.1-2.7 4.1z" fill="#f5e169"/><path d="M27.9 24.2s1.1 3.1 3.3 3.7 4.7-1.5 4.7-1.5-1.1-3.1-3.3-3.7-4.7 1.5-4.7 1.5z" fill="#f5e169"/><path d="M31.6 22.6s-2.1-2.5-1.5-4.7 3.7-3.3 3.7-3.3 2.1 2.5 1.5 4.7-3.7 3.3-3.7 3.3z" fill="#f5e169"/><path d="M31.4 22.3c-10 6.2-16.6 17.2-16.6 29.8 0 15.4 10 28.5 23.8 33.2" fill="none" stroke="#f5e169" stroke-miterlimit="10"/></g><metadata xmlns:d="https://loading.io/stock/">
<d:name>medal</d:name>
<d:tags>badge,laurel,prize,winner,trophy,honor,gold,medal,web application</d:tags>
<d:license>by</d:license>
<d:slug>ebfm3l</d:slug>
</metadata></svg>