<?xml version="1.0"?>
<svg version="1.1" id="圖層_1" xmlns="http://www.w3.org/2000/svg" x="0" y="0" viewBox="0 0 100 100" xml:space="preserve"><path d="M66.56 52.979C63.255 62.86 52.226 78.599 50 78.599S36.745 62.86 33.44 52.979c-3.683 3.841-5.94 8.959-5.94 14.593v14.467c0 2.984 2.52 5.403 5.628 5.403h33.745c3.108 0 5.628-2.419 5.628-5.403V67.572c-.001-5.634-2.259-10.752-5.941-14.593z" fill="#c33737"/><path d="M60.27 48.366A23.131 23.131 0 0 0 50 45.969c-3.704 0-7.189.875-10.27 2.397-7.257 3.585-12.23 10.831-12.23 19.206v14.467c0 2.984 2.52 5.403 5.628 5.403h33.745c3.108 0 5.628-2.419 5.628-5.403V67.572c-.001-8.375-4.974-15.621-12.231-19.206z" fill="#c33737"/><path d="M50 33.224c-9.665 0-17.5 6.772-17.5 15.125 0 1.27.348 2.857.94 4.629C36.745 62.86 47.774 78.599 50 78.599s13.255-15.74 16.56-25.621c.593-1.772.94-3.359.94-4.629 0-8.353-7.835-15.125-17.5-15.125z" fill="#e0e0e0"/><path d="M50.953 65.974l9.318-17.608c-3.081-1.522-6.567-2.397-10.27-2.397s-7.189.875-10.27 2.397l9.318 17.608c.363.975 1.539.975 1.904 0z" fill="#efbf4e"/><g><circle cx="50" cy="36.456" r="14.513" fill="#c7b299"/><path d="M64.436 34.956c-.393 3.826-2.28 7.201-5.058 9.559-1.625-3.561-5.208-6.04-9.378-6.04s-7.753 2.48-9.378 6.04c-2.778-2.358-4.665-5.733-5.058-9.559a14.462 14.462 0 0 0 4.313 11.889c2.615 2.549 6.183 4.125 10.124 4.125s7.509-1.576 10.124-4.125a14.462 14.462 0 0 0 4.311-11.889z" fill="#494b32"/></g><g><g><path d="M63 29.458c0 4.356-26.001 4.356-26.001 0l-1.452-12.706c-.053-.486.59-.707.846-.291l3.856 5.763 2.084-6.909a.458.458 0 0 1 .847-.076l3.569 6.985 2.825-7.454a.459.459 0 0 1 .85 0l2.825 7.454 3.569-6.985a.458.458 0 0 1 .847.076l2.084 6.909 3.856-5.763c.257-.417.9-.196.846.291L63 29.458z" fill="#ffdc6c"/><circle cx="50" cy="14.058" r="1.5" fill="#ffdc6c"/><circle cx="57.3" cy="14.557" r="1.5" fill="#ffdc6c"/><circle cx="64.05" cy="15.558" r="1.5" fill="#ffdc6c"/><circle cx="42.7" cy="14.557" r="1.5" fill="#ffdc6c"/><circle cx="35.95" cy="15.558" r="1.5" fill="#ffdc6c"/></g><path opacity=".6" fill="#f73d7e" d="M47.257 27.27l2.743 4v-4z"/><path opacity=".8" fill="#f73d7e" d="M50 23.27l-2.743 4H50z"/><path opacity=".8" fill="#f73d7e" d="M50 27.27v4l2.743-4z"/><path fill="#f73d7e" d="M50 27.27h2.743l-2.743-4z"/></g><metadata xmlns:d="https://loading.io/stock/"><d:name>king</d:name><d:tags>emperor,ruler,throne,royal,imperial,your majesty,king,people</d:tags><d:license>pro</d:license><d:slug>h60tjw</d:slug></metadata></svg>