<?xml version="1.0"?>
<svg version="1.1" id="圖層_1" xmlns="http://www.w3.org/2000/svg" x="0" y="0" viewBox="0 0 100 100" xml:space="preserve"><path d="M56.558 55.994c3.514-.47 7.083-.851 10.595-.368 3.188.438 6.236 1.576 9.383 2.25s6.565.849 9.459-.561c3.292-1.604 5.432-5.212 5.503-8.873.072-3.661-1.821-7.25-4.737-9.464s-6.759-3.08-10.388-2.589c-2.807.38-5.73 1.762-6.854 4.363-.426.986-.562 2.083-.494 3.155.174 2.729 1.83 5.423 4.375 6.423s5.847-.06 6.998-2.541" fill="none" stroke="#333" stroke-width="3.5" stroke-linecap="round" stroke-miterlimit="10"/><path d="M52.983 63.745H12.264A3.764 3.764 0 0 1 8.5 59.981v-9.946a3.764 3.764 0 0 1 3.764-3.764h40.719a3.764 3.764 0 0 1 3.764 3.764v9.946a3.765 3.765 0 0 1-3.764 3.764z" fill="#f8b26a" stroke="#333" stroke-width="3.5" stroke-linejoin="round" stroke-miterlimit="10"/><path fill="#e15b64" stroke="#333" stroke-width="3.5" stroke-linejoin="round" stroke-miterlimit="10" d="M43.51 46.272l-5.063 17.473h8.83l5.063-17.473z"/><path fill="#e15b64" stroke="#333" stroke-width="3.5" stroke-linejoin="round" stroke-miterlimit="10" d="M25.966 46.272l-5.063 17.473h8.83l5.063-17.473z"/><path d="M12.264 46.272A3.764 3.764 0 0 0 8.5 50.036v9.946a3.759 3.759 0 0 0 3.691 3.756l5.061-17.466h-4.988z" fill="#e15b64" stroke="#333" stroke-width="3.5" stroke-linejoin="round" stroke-miterlimit="10"/><path d="M56.469 54.486c-.874 3.167-3.769 5.496-7.214 5.496H15.991c-3.445 0-6.339-2.329-7.214-5.496H8.5v5.496a3.764 3.764 0 0 0 3.764 3.764h40.719a3.764 3.764 0 0 0 3.764-3.764v-5.496h-.278z" opacity=".2" stroke="#000" stroke-width="3.5" stroke-linecap="round" stroke-miterlimit="10"/><path fill="none" stroke="#fff" stroke-width="3.5" stroke-linecap="round" stroke-miterlimit="10" d="M14.833 51.235h11.834"/><path fill="none" stroke="#fff" stroke-width="3.5" stroke-linecap="round" stroke-miterlimit="10" d="M33.813 51.235H32.25"/><metadata xmlns:d="https://loading.io/stock/"><d:name>party horn</d:name><d:tags>party horn,party whistle,celebrate,birthday,holiday,festival,blower</d:tags><d:license>by</d:license><d:slug>io6dft</d:slug></metadata></svg>