<?xml version="1.0"?><svg version="1.1" id="圖層_1" xmlns="http://www.w3.org/2000/svg" x="0" y="0" viewBox="0 0 100 100" xml:space="preserve"><g><path fill="#c33737" d="M57.7 43l8.4-7.9V7.5H33.9v27.6l8.4 7.9z"/><path fill="#e0e0e0" d="M38.2 7.5v31.6l4.1 3.9h.2V7.5z"/><path fill="#e0e0e0" d="M57.5 7.5V43h.2l4.1-3.9V7.5z"/></g><g><path d="M62.7 44L36.8 88.9c3.9 2.3 8.4 3.6 13.2 3.6 14.3 0 25.9-11.6 25.9-25.9 0-9.7-5.3-18.2-13.2-22.6z" fill="#f47e60"/><path d="M50 40.7c-14.3 0-25.9 11.6-25.9 25.9 0 9.5 5.1 17.8 12.7 22.3L62.7 44c-3.8-2.1-8.1-3.3-12.7-3.3z" fill="#f8b26a"/><path d="M58 52.1L41.5 80.8c2.5 1.5 5.4 2.4 8.5 2.4 9.2 0 16.6-7.4 16.6-16.6 0-6.3-3.5-11.7-8.6-14.5z" fill="#ffdc6c"/><path d="M50 50c-9.2 0-16.6 7.4-16.6 16.6 0 6 3.2 11.3 8 14.2L58 52.1c-2.3-1.3-5.1-2.1-8-2.1z" fill="#f5e6c8"/></g><metadata xmlns:d="https://loading.io/stock/">
<d:name>medal</d:name>
<d:tags>badge,prize,winner,trophy,honor,gold,medal,web application</d:tags>
<d:license>by</d:license>
<d:slug>iv2yu8</d:slug>
</metadata></svg>