<?xml version="1.0"?><svg version="1.1" id="圖層_1" xmlns="http://www.w3.org/2000/svg" x="0" y="0" viewBox="0 0 100 100" xml:space="preserve"><path d="M80.3 60.8c-5.4-4.3-8.9-11.5-8.9-19.7 0-4.8 1.2-9.4 3.4-13.1 1.1-2 .2-4.4-1.9-5.2l-8.6-3.2c-2 4.7-26.6 4.7-28.6 0l-8.6 3.2c-2.1.8-3 3.3-1.9 5.2 2.1 3.8 3.4 8.3 3.4 13.1 0 8.1-3.5 15.3-8.9 19.7-1.3 1-2 2.7-1.9 4.3l1 18c.2 3.9 3.2 7 7.1 7.4l15.3 1.6c4.7.5 12.9.5 17.6 0l15.3-1.6c3.9-.4 6.9-3.6 7.1-7.4l1-18c.1-1.7-.6-3.3-1.9-4.3z" fill="#e15b64" stroke-linecap="round" stroke-linejoin="round" stroke="#333" stroke-width="3" stroke-miterlimit="10"/><g><path stroke-linecap="round" stroke-linejoin="round" fill="none" stroke="#333" stroke-width="3" stroke-miterlimit="10" d="M50 24.5L33.9 37.9"/><path stroke-linecap="round" stroke-linejoin="round" fill="none" stroke="#333" stroke-width="3" stroke-miterlimit="10" d="M50 24.5l16.1 13.4"/><path d="M56.6 14.1c0-3.6-2.9-6.6-6.6-6.6s-6.6 2.9-6.6 6.6 2.9 6.6 6.6 6.6v3.8" stroke-linecap="round" stroke-linejoin="round" fill="none" stroke="#333" stroke-width="3" stroke-miterlimit="10"/></g><g><path d="M35.7 19.9L27.1 23c-2.1.8-3 3.3-1.9 5.2 2.1 3.8 3.4 8.3 3.4 13.1 0 8.1-3.5 15.3-8.9 19.7-1.3 1-2 2.7-1.9 4.3l1 18c.2 3.9 3.2 7 7.1 7.4l15.3 1.6c4.7.5 8.8-3.2 8.8-7.9V57.6l-9.5-35.3c-.6-2-2.8-3.2-4.8-2.4z" fill="#f8b26a" stroke="#333" stroke-width="3" stroke-linecap="round" stroke-linejoin="round" stroke-miterlimit="10"/><path d="M64.3 19.9l8.6 3.2c2.1.8 3 3.3 1.9 5.2-2.1 3.8-3.4 8.3-3.4 13.1 0 8.1 3.5 15.3 8.9 19.7 1.3 1 2 2.7 1.9 4.3l-1 18c-.2 3.9-3.2 7-7.1 7.4l-15.3 1.6c-4.7.5-8.8-3.2-8.8-7.9V57.6l9.5-35.3c.6-2 2.8-3.2 4.8-2.4z" fill="#f8b26a" stroke="#333" stroke-width="3" stroke-linecap="round" stroke-linejoin="round" stroke-miterlimit="10"/><circle cx="60.5" cy="65.4" r="4.1" fill="#f5e169" stroke="#333" stroke-width="3" stroke-linecap="round" stroke-linejoin="round" stroke-miterlimit="10"/><circle cx="60.5" cy="79.8" r="4.1" fill="#f5e169" stroke="#333" stroke-width="3" stroke-linecap="round" stroke-linejoin="round" stroke-miterlimit="10"/><circle cx="38.8" cy="65.4" r="4.1" fill="#f5e169" stroke="#333" stroke-width="3" stroke-linecap="round" stroke-linejoin="round" stroke-miterlimit="10"/><circle cx="38.8" cy="79.8" r="4.1" fill="#f5e169" stroke="#333" stroke-width="3" stroke-linecap="round" stroke-linejoin="round" stroke-miterlimit="10"/></g><metadata xmlns:d="https://loading.io/stock/">
<d:name>vest</d:name>
<d:tags>vest,bodysuit,cloth,garment,tank top,hanger</d:tags>
<d:license>by</d:license>
<d:slug>jinr43</d:slug>
</metadata></svg>