<?xml version="1.0"?><svg version="1.1" id="圖層_1" xmlns="http://www.w3.org/2000/svg" x="0" y="0" viewBox="0 0 100 100" xml:space="preserve"><path stroke-linecap="round" stroke-linejoin="round" fill="#77a4bd" stroke="#333" stroke-width="3" stroke-miterlimit="10" d="M70.9 62.3H29.1l-6.2 26.6 22.5 3.6 3.5-17.3h2.2l3.5 17.3 22.5-3.6z"/><g><path d="M29.1 15l3.2-6.3 4.9-1.2h25.6l4.9 1.2 3.2 6.3c0 4.3-41.8 4.3-41.8 0z" stroke="#333" stroke-width="3" stroke-miterlimit="10" fill="#fff" stroke-linecap="round" stroke-linejoin="round"/><path d="M65.7 11.3c-10.5 5.4-20.9 5.4-31.4 0 0 24.5 31.4 24.5 31.4 0z" stroke-linecap="round" stroke-linejoin="round" fill="#666" stroke="#333" stroke-width="3" stroke-miterlimit="10"/><path d="M70.9 15.7c-1.5-.6-3.1-1.1-4.7-1.5l-3.6-.9c0 19.7-25.3 19.7-25.3 0-1.2.2-2.4.5-3.6.9-1.6.4-3.2.9-4.7 1.5-6 2.2-11.5 5.5-16.6 9.9L19.1 39l10-4.9v28.2H71V34.1L81 39l6.6-13.4c-5.2-4.4-10.7-7.7-16.7-9.9z" fill="#f8b26a" stroke="#333" stroke-width="3" stroke-linecap="round" stroke-linejoin="round" stroke-miterlimit="10"/><path stroke="#333" stroke-width="3" stroke-miterlimit="10" fill="#fff" stroke-linecap="round" stroke-linejoin="round" d="M29.1 15l3.2-6.3 4.9-1.2L50 27.4l-10.5 7.8z"/><path stroke="#333" stroke-width="3" stroke-miterlimit="10" fill="#fff" stroke-linecap="round" stroke-linejoin="round" d="M70.9 15l-3.2-6.3-4.9-1.2L50 27.4l10.5 7.8z"/></g><metadata xmlns:d="https://loading.io/stock/">
<d:name>clothes</d:name>
<d:tags>clothes,short pants,t-shirt</d:tags>
<d:license>by</d:license>
<d:slug>jzph2f</d:slug>
</metadata></svg>