<?xml version="1.0"?><svg version="1.1" id="圖層_1" xmlns="http://www.w3.org/2000/svg" x="0" y="0" viewBox="0 0 100 100" xml:space="preserve"><g><path d="M54.983 41.105h-8.774V28.558a2.547 2.547 0 0 1 2.545-2.545h3.685a2.547 2.547 0 0 1 2.545 2.545l-.001 12.547z" fill="#e0e0e0" stroke="#333" stroke-width="3.5" stroke-miterlimit="10"/></g><path d="M52.438 26.014h-.272v15.092h2.816V28.558a2.545 2.545 0 0 0-2.544-2.544z" opacity=".2" stroke="#000" stroke-width="3.5" stroke-miterlimit="10"/><g><path d="M56.036 18.117c0 2.983-2.457 5.44-5.44 5.44s-5.44-2.457-5.44-5.44S50.596 7.5 50.596 7.5s5.44 7.546 5.44 10.617z" fill="#f8b26a" stroke="#333" stroke-width="3.5" stroke-miterlimit="10"/></g><g><path d="M69.022 42.421h-8.774V29.874a2.547 2.547 0 0 1 2.545-2.545h3.685a2.547 2.547 0 0 1 2.545 2.545v12.547z" fill="#e0e0e0" stroke="#333" stroke-width="3.5" stroke-miterlimit="10"/></g><path d="M66.667 27.349v15.073h2.355V29.874a2.538 2.538 0 0 0-2.355-2.525z" opacity=".2" stroke="#000" stroke-width="3.5" stroke-miterlimit="10"/><g><path d="M68.583 20.223a3.931 3.931 0 0 1-3.948 3.948c-2.194 0-3.948-1.755-3.948-3.948s3.948-7.634 3.948-7.634 3.948 5.528 3.948 7.634z" fill="#f8b26a" stroke="#333" stroke-width="3.5" stroke-miterlimit="10"/></g><g><path d="M40.944 42.421H32.17V29.874a2.547 2.547 0 0 1 2.545-2.545H38.4a2.547 2.547 0 0 1 2.545 2.545v12.547z" fill="#e0e0e0" stroke="#333" stroke-width="3.5" stroke-miterlimit="10"/></g><path d="M38.4 27.33h-.233v15.092h2.777V29.874A2.546 2.546 0 0 0 38.4 27.33z" opacity=".2" stroke="#000" stroke-width="3.5" stroke-miterlimit="10"/><g><path d="M40.505 20.223c0 2.194-1.755 3.948-3.948 3.948s-3.948-1.755-3.948-3.948 3.948-7.634 3.948-7.634 3.948 5.528 3.948 7.634z" fill="#f8b26a" stroke="#333" stroke-width="3.5" stroke-miterlimit="10"/></g><path d="M86.224 92.5H13.776V71.046a7.373 7.373 0 0 1 7.372-7.372h57.704a7.373 7.373 0 0 1 7.372 7.372V92.5z" fill="#fff" stroke="#333" stroke-width="3.5" stroke-miterlimit="10"/><path d="M67.085 40.229h-34.17a9.392 9.392 0 0 0-9.392 9.392v14.053h52.952V49.621a9.39 9.39 0 0 0-9.39-9.392z" fill="#fff" stroke="#333" stroke-width="3.5" stroke-miterlimit="10"/><path d="M79.16 63.674H20.84c-3.902 0-7.064 3.444-7.064 7.693v5.388c2.09 1.44 4.559 2.285 7.215 2.285 3.925 0 7.449-1.832 9.92-4.74 2.471 2.908 5.995 4.74 9.92 4.74s7.449-1.832 9.92-4.74c2.471 2.908 5.995 4.74 9.92 4.74s7.449-1.832 9.92-4.74c2.471 2.908 5.995 4.74 9.92 4.74 2.044 0 3.975-.508 5.712-1.392v-6.282c.001-4.248-3.162-7.692-7.063-7.692z" fill="#e15b64" stroke="#333" stroke-width="3.5" stroke-miterlimit="10"/><path d="M67.085 40.229h-34.17a9.392 9.392 0 0 0-9.392 9.392v4.15a10.64 10.64 0 0 0 12.672-1.288c1.901 1.737 4.424 2.805 7.202 2.805s5.301-1.068 7.202-2.805c1.901 1.737 4.424 2.805 7.202 2.805s5.301-1.068 7.202-2.805a10.649 10.649 0 0 0 11.472 1.913v-4.775a9.39 9.39 0 0 0-9.39-9.392z" fill="#e15b64" stroke="#333" stroke-width="3.5" stroke-miterlimit="10"/><path d="M67.085 40.229h-8.751v23.445h18.143V49.621c-.001-5.187-4.206-9.392-9.392-9.392z" opacity=".2" stroke="#000" stroke-width="3.5" stroke-miterlimit="10"/><path d="M78.852 63.674H64.635V92.5h21.59V71.046a7.373 7.373 0 0 0-7.373-7.372z" opacity=".2" stroke="#000" stroke-width="3.5" stroke-miterlimit="10"/><metadata xmlns:d="https://loading.io/stock/">
<d:name>cake</d:name>
<d:tags>cake,birthday,candle,dessert,wedding,party,celebrate,congratulate,festival</d:tags>
<d:license>by</d:license>
<d:slug>lhctwc</d:slug>
</metadata></svg>