<?xml version="1.0"?><svg version="1.1" id="圖層_1" xmlns="http://www.w3.org/2000/svg" x="0" y="0" viewBox="0 0 100 100" xml:space="preserve"><path d="M57.3 19.7H42.1c2.7 6.2 5.3 12.9 7.6 20 2.4-7.1 5-13.8 7.6-20z" stroke="#333" stroke-width="3" stroke-miterlimit="10" fill="#e0e0e0" stroke-linecap="round" stroke-linejoin="round"/><g><path d="M27.8 79l-2.7 9.7h33.2c0-32.3-9.4-58.1-18.6-77.4-4.2 2.3-9 3.7-12.8 6.7-4.4 3.4-6.5 9.3-8.5 14.3-1.3 3.1-11.7 38.3-10.9 38.4L21.9 73l6.9-25 .6 4.2c.3 2.5.5 5 .5 7.5v3.8c0 5.3-.7 10.4-2.1 15.5z" stroke="#333" stroke-width="3" stroke-miterlimit="10" fill="#e0e0e0" stroke-linecap="round" stroke-linejoin="round"/><path d="M34.1 14.4c9.2 22.9 14.8 47.5 16.8 74.3" stroke-linecap="round" stroke-linejoin="round" fill="none" stroke="#333" stroke-width="3" stroke-miterlimit="10"/></g><g><path d="M70 52.3l.6-4.2 6.9 25 15-2.4c.9-.2-10.2-35.5-11.5-38.7-2-4.8-4.2-10.3-8.4-13.7-3.8-3.2-8.7-4.7-13-7C50.4 30.5 41 56.3 41 88.7h33.2L71.6 79c-1.4-5-2.1-10.2-2.1-15.4v-3.8c0-2.6.2-5.1.5-7.5z" stroke="#333" stroke-width="3" stroke-miterlimit="10" fill="#e0e0e0" stroke-linecap="round" stroke-linejoin="round"/><path d="M64.9 14.2C55.7 37.1 50.1 62 48.1 88.7" stroke-linecap="round" stroke-linejoin="round" fill="none" stroke="#333" stroke-width="3" stroke-miterlimit="10"/></g><g><path stroke-linecap="round" stroke-linejoin="round" fill="#666" stroke="#333" stroke-width="3" stroke-miterlimit="10" d="M63.6 81.3l-7.2 2.6-4.9-16.6 5-1.8z"/><path stroke-linecap="round" stroke-linejoin="round" fill="#666" stroke="#333" stroke-width="3" stroke-miterlimit="10" d="M28.3 64.9h42.8v7H28.3z"/></g><metadata xmlns:d="https://loading.io/stock/">
<d:name>dobok</d:name>
<d:tags>dobok,taoist cloth,judo,judogi,karate,taekwondo</d:tags>
<d:license>by</d:license>
<d:slug>o3gk3u</d:slug>
</metadata></svg>