<?xml version="1.0"?>
<svg version="1.1" id="圖層_1" xmlns="http://www.w3.org/2000/svg" x="0" y="0" viewBox="0 0 100 100" xml:space="preserve"><path d="M25.185 36.586a14.529 14.529 0 0 1 4.864-3.239" fill="#e15b64" stroke="#fff" stroke-width="3.5" stroke-linecap="round" stroke-miterlimit="10"/><g><path fill="none" stroke="#333" stroke-width="3.5" stroke-linecap="round" stroke-miterlimit="10" d="M45.794 49.458v14.515"/><path d="M60.627 26.5c0 9.949-6.642 19.224-14.835 19.224S30.958 36.448 30.958 26.5 37.6 10 45.793 10s14.834 6.551 14.834 16.5z" fill="#abbd81" stroke="#333" stroke-width="3.5" stroke-miterlimit="10"/><path d="M38.799 18.143a14.073 14.073 0 0 1 4.704-3.133" fill="#e15b64" stroke="#fff" stroke-width="3.5" stroke-linecap="round" stroke-miterlimit="10"/><path d="M35.816 24.089c.143-.507.305-.999.487-1.477" fill="#e15b64" stroke="#fff" stroke-width="3.5" stroke-linecap="round" stroke-miterlimit="10"/><path d="M47.646 51.85H43.94a1.8 1.8 0 0 1-1.728-2.306l1.158-3.96h4.846l1.158 3.96a1.801 1.801 0 0 1-1.728 2.306z" fill="#abbd81" stroke="#333" stroke-width="3.5" stroke-miterlimit="10"/><path d="M55.401 13.664c.008.315.015.63.015.95 0 13.346-6.936 25.789-15.493 25.789-1.915 0-3.748-.627-5.441-1.745 2.721 4.223 6.777 7.066 11.311 7.066 8.193 0 14.835-9.276 14.835-19.224-.001-5.495-2.033-9.945-5.227-12.836z" opacity=".2" stroke="#000" stroke-width="3.5" stroke-linecap="round" stroke-linejoin="round" stroke-miterlimit="10"/></g><g><path fill="none" stroke="#333" stroke-width="3.5" stroke-linecap="round" stroke-miterlimit="10" d="M32.417 68.105v15.006"/><path d="M47.752 44.37c0 10.285-6.866 19.874-15.336 19.874S17.08 54.654 17.08 44.37s6.866-17.058 15.336-17.058 15.336 6.773 15.336 17.058z" fill="#f47e60" stroke="#333" stroke-width="3.5" stroke-miterlimit="10"/><path d="M25.185 35.731a14.529 14.529 0 0 1 4.864-3.239" fill="#e15b64" stroke="#fff" stroke-width="3.5" stroke-linecap="round" stroke-miterlimit="10"/><path d="M22.102 41.878c.148-.524.316-1.033.504-1.527" fill="#e15b64" stroke="#fff" stroke-width="3.5" stroke-linecap="round" stroke-miterlimit="10"/><path d="M34.331 70.577H30.5a1.861 1.861 0 0 1-1.786-2.384l1.197-4.094h5.01l1.197 4.094a1.862 1.862 0 0 1-1.787 2.384z" fill="#f47e60" stroke="#333" stroke-width="3.5" stroke-miterlimit="10"/><path d="M42.348 31.101c.008.325.016.651.016.982 0 13.797-7.171 26.661-16.016 26.661-1.98 0-3.875-.649-5.625-1.804 2.813 4.366 7.006 7.305 11.693 7.305 8.47 0 15.336-9.59 15.336-19.874 0-5.681-2.101-10.282-5.404-13.27z" opacity=".2" stroke="#000" stroke-width="3.5" stroke-linecap="round" stroke-linejoin="round" stroke-miterlimit="10"/></g><g><path fill="none" stroke="#333" stroke-width="3.5" stroke-linecap="round" stroke-miterlimit="10" d="M68.314 56.926V71.22"/><path d="M82.921 34.318c0 9.797-6.54 18.931-14.608 18.931s-14.608-9.134-14.608-18.931 6.54-16.248 14.608-16.248 14.608 6.451 14.608 16.248z" fill="#f8b26a" stroke="#333" stroke-width="3.5" stroke-miterlimit="10"/><path d="M61.425 26.088a13.85 13.85 0 0 1 4.633-3.085" fill="#e15b64" stroke="#fff" stroke-width="3.5" stroke-linecap="round" stroke-miterlimit="10"/><path d="M58.488 31.943c.141-.499.301-.984.48-1.455" fill="#e15b64" stroke="#fff" stroke-width="3.5" stroke-linecap="round" stroke-miterlimit="10"/><path d="M70.137 59.281h-3.649a1.774 1.774 0 0 1-1.702-2.27l1.14-3.9h4.772l1.14 3.9a1.772 1.772 0 0 1-1.701 2.27z" fill="#f8b26a" stroke="#333" stroke-width="3.5" stroke-miterlimit="10"/><path d="M77.774 21.678c.008.31.015.62.015.935 0 13.142-6.83 25.396-15.256 25.396-1.886 0-3.691-.618-5.358-1.718 2.68 4.158 6.674 6.958 11.138 6.958 8.068 0 14.608-9.134 14.608-18.931 0-5.411-2.002-9.793-5.147-12.64z" opacity=".2" stroke="#000" stroke-width="3.5" stroke-linecap="round" stroke-linejoin="round" stroke-miterlimit="10"/></g><g><path fill="none" stroke="#333" stroke-width="3.5" stroke-linecap="round" stroke-miterlimit="10" d="M53.471 74.994V90"/><path d="M68.805 51.259c0 10.285-6.866 19.874-15.336 19.874s-15.336-9.59-15.336-19.874 6.866-17.058 15.336-17.058 15.336 6.773 15.336 17.058z" fill="#e15b64" stroke="#333" stroke-width="3.5" stroke-miterlimit="10"/><path d="M43.155 48.766c.148-.524.316-1.033.504-1.527" fill="#e15b64" stroke="#fff" stroke-width="3.5" stroke-linecap="round" stroke-miterlimit="10"/><path d="M55.385 77.466h-3.831a1.861 1.861 0 0 1-1.786-2.384l1.197-4.094h5.01l1.197 4.094a1.862 1.862 0 0 1-1.787 2.384z" fill="#e15b64" stroke="#333" stroke-width="3.5" stroke-miterlimit="10"/><path d="M63.402 37.99c.008.325.016.651.016.982 0 13.797-7.171 26.661-16.016 26.661-1.98 0-3.875-.649-5.625-1.804 2.813 4.366 7.006 7.305 11.693 7.305 8.47 0 15.336-9.59 15.336-19.874-.001-5.681-2.102-10.282-5.404-13.27z" opacity=".2" stroke="#000" stroke-width="3.5" stroke-linecap="round" stroke-linejoin="round" stroke-miterlimit="10"/><path d="M46.537 42.997a12.883 12.883 0 0 1 4.308-2.869" fill="#e15b64" stroke="#fff" stroke-width="3.5" stroke-linecap="round" stroke-miterlimit="10"/></g><metadata xmlns:d="https://loading.io/stock/"><d:name>balloon</d:name><d:tags>balloon,blow,float,fly,party,toy</d:tags><d:license>by</d:license><d:slug>oa3g7v</d:slug></metadata></svg>