<?xml version="1.0"?>
<svg version="1.1" id="圖層_1" xmlns="http://www.w3.org/2000/svg" x="0" y="0" viewBox="0 0 100 100" xml:space="preserve"><path d="M60.27 46.299c-3.081-1.522-6.567-2.397-10.27-2.397s-7.189.875-10.27 2.397C32.473 49.884 27.5 57.13 27.5 65.505v14.467c0 2.984 2.52 5.403 5.628 5.403h33.745c3.108 0 5.628-2.419 5.628-5.403V65.505C72.5 57.13 67.527 49.884 60.27 46.299z" fill="#333"/><path d="M45.75 47.885v2.411a2.08 2.08 0 0 0 2.079 2.079h4.342a2.08 2.08 0 0 0 2.079-2.079v-2.411a34.341 34.341 0 0 1-8.5 0z" fill="#e0e0e0"/><g><path d="M39.678 44.601c-.27-.147-.593.056-.593.364v3.937c0 .92 1.887 1.568 4.55 1.947a1.852 1.852 0 0 0 2.115-1.826v-1.6c0-.948-.722-1.733-1.665-1.834-1.979-.211-3.587-.54-4.407-.988z" fill="#333"/><path d="M54.25 47.423v1.6a1.85 1.85 0 0 0 2.115 1.826c2.663-.379 4.55-1.027 4.55-1.947v-3.937c0-.307-.323-.511-.593-.364-.821.447-2.429.776-4.408.987a1.853 1.853 0 0 0-1.664 1.835z" fill="#333"/></g><circle cx="50" cy="34.388" r="14.513" fill="#c7b299"/><path d="M50 19.875c-.426 0-.846.028-1.263.064a14.453 14.453 0 0 0-3.089.602 14.517 14.517 0 0 0-10.016 11.903c.637.112 1.288.181 1.957.181 4.154 0 7.773-2.258 9.721-5.607 2.876 6.114 9.074 10.357 16.279 10.357.21 0 .414-.024.622-.031.197-.954.303-1.942.303-2.955 0-8.016-6.498-14.514-14.514-14.514z" fill="#e0e0e0"/><path fill="#ffdc6c" d="M55.352 60.879H51.32v-4.032h-2.64v4.032h-4.032v2.64h4.032v10.884h2.64V63.519h4.032z"/><path d="M55.767 16.072l.252-.797a.5.5 0 1 0-.953-.301l-.25.789a8.137 8.137 0 0 0-2.06-.273c-3.474 0-6.433 2.174-7.61 5.233 1.52-.54 13.028 1.042 15.687 4.028.049-.361.083-.727.083-1.102-.001-3.44-2.135-6.378-5.149-7.577z" fill="#333"/><metadata xmlns:d="https://loading.io/stock/"><d:name>priest</d:name><d:tags>monk,religion,god,father,confess,church,priest,people</d:tags><d:license>pro</d:license><d:slug>oaenlw</d:slug></metadata></svg>