<?xml version="1.0"?>
<svg version="1.1" id="圖層_1" xmlns="http://www.w3.org/2000/svg" x="0" y="0" viewBox="0 0 100 100" xml:space="preserve"><g><path d="M7.719 19.961c24.982 18.287 58.969 18.287 83.952 0" fill="none" stroke="#333" stroke-width="3.5" stroke-linecap="round" stroke-miterlimit="10"/><path d="M11.896 44.096c-1.29-7.489-1.657-14.896-1.146-22.035a70.851 70.851 0 0 0 18.815 8.711c-5.096 5.014-11.015 9.521-17.669 13.324z" fill="#e15b64" stroke="#333" stroke-width="3.5" stroke-linecap="round" stroke-miterlimit="10"/><path d="M36.701 51.484c-3.29-6.796-5.669-13.762-7.137-20.712a71.17 71.17 0 0 0 20.131 2.904c-3.436 6.25-7.782 12.252-12.994 17.808z" fill="#f47e60" stroke="#333" stroke-width="3.5" stroke-linecap="round" stroke-miterlimit="10"/><path d="M62.349 51.533c-5.077-5.592-9.308-11.607-12.654-17.857 6.783 0 13.567-.968 20.131-2.904-1.556 6.976-4.048 13.962-7.477 20.761z" fill="#f8b26a" stroke="#333" stroke-width="3.5" stroke-linecap="round" stroke-miterlimit="10"/><path d="M87.176 44.243c-6.532-3.879-12.343-8.431-17.351-13.471a70.851 70.851 0 0 0 18.815-8.711c.432 7.191-.041 14.65-1.464 22.182z" fill="#abbd81" stroke="#333" stroke-width="3.5" stroke-linecap="round" stroke-miterlimit="10"/></g><g><path d="M7.719 49.961c24.982 18.287 58.969 18.287 83.952 0" fill="none" stroke="#333" stroke-width="3.5" stroke-linecap="round" stroke-miterlimit="10"/><path d="M11.896 74.096c-1.29-7.489-1.657-14.896-1.146-22.035a70.851 70.851 0 0 0 18.815 8.711c-5.096 5.014-11.015 9.521-17.669 13.324z" fill="#e15b64" stroke="#333" stroke-width="3.5" stroke-linecap="round" stroke-miterlimit="10"/><path d="M36.701 81.484c-3.29-6.796-5.669-13.762-7.137-20.712a71.17 71.17 0 0 0 20.131 2.904c-3.436 6.25-7.782 12.252-12.994 17.808z" fill="#f47e60" stroke="#333" stroke-width="3.5" stroke-linecap="round" stroke-miterlimit="10"/><path d="M62.349 81.533c-5.077-5.592-9.308-11.607-12.654-17.857 6.783 0 13.567-.968 20.131-2.904-1.556 6.976-4.048 13.962-7.477 20.761z" fill="#f8b26a" stroke="#333" stroke-width="3.5" stroke-linecap="round" stroke-miterlimit="10"/><path d="M87.176 74.243c-6.532-3.879-12.343-8.431-17.351-13.471a70.851 70.851 0 0 0 18.815-8.711c.432 7.191-.041 14.65-1.464 22.182z" fill="#abbd81" stroke="#333" stroke-width="3.5" stroke-linecap="round" stroke-miterlimit="10"/></g><metadata xmlns:d="https://loading.io/stock/"><d:name>party flag</d:name><d:tags>party flag,bunting flag,celebrate,ceremony,holiday,decoration,banner</d:tags><d:license>by</d:license><d:slug>oucqbp</d:slug></metadata></svg>