<?xml version="1.0"?><svg version="1.1" id="圖層_1" xmlns="http://www.w3.org/2000/svg" x="0" y="0" viewBox="0 0 100 100" xml:space="preserve"><path d="M60.27 45.943A23.131 23.131 0 0 0 50 43.546c-3.704 0-7.189.875-10.27 2.397-7.257 3.585-12.23 10.831-12.23 19.206v14.467c0 2.984 2.52 5.403 5.628 5.403h33.745c3.108 0 5.628-2.419 5.628-5.403V65.149c-.001-8.375-4.974-15.621-12.231-19.206z" fill="#c69c6d"/><path d="M51.692 53.331h-3.384l-1.591-3.82a1.33 1.33 0 0 1 1.228-1.842h4.111a1.33 1.33 0 0 1 1.228 1.842l-1.592 3.82z" fill="#131f25"/><path d="M52.223 76.887l-1.153 1.402a1.385 1.385 0 0 1-2.139 0l-1.153-1.402a6.819 6.819 0 0 1-1.512-5.08l2.043-18.476h3.383l2.043 18.476a6.815 6.815 0 0 1-1.512 5.08z" fill="#131f25"/><circle cx="50" cy="34.032" r="14.513" fill="#c7b299"/><path d="M63.057 25.429c-.189.11-.382.214-.579.314-.396.2-.81.381-1.244.545-.217.082-.439.16-.666.233-.454.147-.928.278-1.424.393-2.478.577-5.485.777-9.144.777-3.658 0-6.666-.199-9.144-.777-.496-.115-.97-.246-1.424-.393a15.291 15.291 0 0 1-.666-.233 12.758 12.758 0 0 1-1.244-.545c-.198-.1-.391-.205-.579-.314.101.503.338 1.005.503 1.563 1.138 3.865 6.138 7.307 12.555 7.041 6.416.266 11.458-3.051 12.555-7.041.153-.561.4-1.06.501-1.563z" fill="#573e31"/><path d="M63.843 19.64h-.026c-3.582 0-6.884-1.2-9.526-3.219-2.511-1.92-6.071-1.92-8.583 0a15.635 15.635 0 0 1-9.526 3.219h-.026c-1.264-.002-2.132 1.265-1.631 2.425.316.731 2.042 2.812 2.416 3.364 3.016 1.753 7.204 2.263 13.057 2.263s10.041-.51 13.057-2.263c.374-.551 2.1-2.633 2.416-3.364.504-1.16-.364-2.427-1.628-2.425z" fill="#c69c6d"/><path d="M50 20.136c-1.381 0-2.5 1.112-2.5 1.59s.625 3.86 2.5 3.86 2.5-3.382 2.5-3.86c0-.478-1.119-1.59-2.5-1.59z" fill="#f1f5db"/><path d="M63.055 62.785a2.524 2.524 0 0 0-.013-.181c-.088-.869-.537-1.238-.549-2.173v-.004a2.37 2.37 0 0 1 .002-.145l.003-.053.007-.106.006-.067.011-.103.01-.076.016-.106.014-.082.023-.116.018-.085c.009-.043.02-.088.031-.132.007-.027.012-.053.02-.081.018-.071.038-.144.06-.219l.001-.003-.541-.453c-.824.448-1.82.209-2.202-.149a.547.547 0 0 1-.129-.17c-.002-.004-.006-.003-.009-.006l-.002.002a.002.002 0 0 1-.002-.002c-.003.003-.007.002-.009.006a.576.576 0 0 1-.129.17c-.382.358-1.378.596-2.202.149l-.541.455.001.003c.022.075.041.148.059.219l.02.083.031.131.018.085.023.116.014.082.017.106.01.076.011.103.006.067a4.036 4.036 0 0 1 .01.159c.002.05.002.098.002.145v.004a2.695 2.695 0 0 1-.171.913c-.089.25-.199.493-.275.748a2.786 2.786 0 0 0-.116.952c.003.091.011.187.022.289.091.811.562 1.453 1.252 1.866.514.308 1.087.454 1.632.687.103.055.184.106.236.153.022.02.051.026.079.021h.005a.095.095 0 0 0 .079-.021c.051-.047.133-.098.236-.153.546-.233 1.118-.379 1.632-.687.69-.412 1.161-1.056 1.252-1.866.022-.207.027-.387.021-.551z" fill="#f1f5db"/><metadata xmlns:d="https://loading.io/stock/">
<d:name>police officer</d:name>
<d:tags>sheriff,cop,policeman,ranger,interpol,police officer,people</d:tags>
<d:license>by</d:license>
<d:slug>p9er78</d:slug>
</metadata></svg>