<?xml version="1.0"?>
<svg version="1.1" id="圖層_1" xmlns="http://www.w3.org/2000/svg" x="0" y="0" viewBox="0 0 100 100" xml:space="preserve"><g><path fill="none" stroke="#333" stroke-width="3.5" stroke-linecap="round" stroke-linejoin="round" stroke-miterlimit="10" d="M76.556 58.244v17.914"/><path d="M91.176 36.347c0 9.805-6.546 18.947-14.621 18.947s-14.621-9.142-14.621-18.947 6.546-16.262 14.621-16.262 14.621 6.457 14.621 16.262z" fill="#f8b26a" stroke="#333" stroke-width="3.5" stroke-miterlimit="10"/><path d="M70.141 27.154a13.865 13.865 0 0 1 4.637-3.088" fill="#e15b64" stroke="#fff" stroke-width="3.5" stroke-linecap="round" stroke-miterlimit="10"/><path d="M66.245 33.971c.141-.5.301-.985.48-1.456" fill="#e15b64" stroke="#fff" stroke-width="3.5" stroke-linecap="round" stroke-miterlimit="10"/><path d="M86.025 23.697c.008.31.015.62.015.936 0 13.153-6.836 25.417-15.269 25.417-1.888 0-3.694-.618-5.363-1.72 2.682 4.162 6.679 6.964 11.147 6.964 8.075 0 14.621-9.142 14.621-18.947 0-5.415-2.003-9.801-5.151-12.65z" opacity=".2" stroke="#000" stroke-width="3.5" stroke-linecap="round" stroke-linejoin="round" stroke-miterlimit="10"/><path d="M78.382 61.331H74.73a1.774 1.774 0 0 1-1.703-2.272l1.141-3.903h4.776l1.141 3.903a1.774 1.774 0 0 1-1.703 2.272z" fill="#f8b26a" stroke="#333" stroke-width="3.5" stroke-miterlimit="10"/></g><g><path fill="none" stroke="#333" stroke-width="3.5" stroke-linecap="round" stroke-linejoin="round" stroke-miterlimit="10" d="M23.444 58.244v17.914"/><path d="M8.824 36.347c0 9.805 6.546 18.947 14.621 18.947s14.621-9.142 14.621-18.947-6.546-16.262-14.621-16.262S8.824 26.542 8.824 36.347z" fill="#f8b26a" stroke="#333" stroke-width="3.5" stroke-miterlimit="10"/><path d="M29.859 27.154a13.865 13.865 0 0 0-4.637-3.088" fill="#e15b64" stroke="#fff" stroke-width="3.5" stroke-linecap="round" stroke-miterlimit="10"/><path d="M33.755 33.971c-.141-.5-.301-.985-.48-1.456" fill="#e15b64" stroke="#fff" stroke-width="3.5" stroke-linecap="round" stroke-miterlimit="10"/><path d="M13.975 23.697c-.008.31-.015.62-.015.936 0 13.153 6.836 25.417 15.269 25.417 1.888 0 3.694-.618 5.363-1.72-2.682 4.162-6.679 6.964-11.147 6.964-8.075 0-14.621-9.142-14.621-18.947 0-5.415 2.003-9.801 5.151-12.65z" opacity=".2" stroke="#000" stroke-width="3.5" stroke-linecap="round" stroke-linejoin="round" stroke-miterlimit="10"/><path d="M21.618 61.331h3.652a1.774 1.774 0 0 0 1.703-2.272l-1.141-3.903h-4.776l-1.141 3.903a1.774 1.774 0 0 0 1.703 2.272z" fill="#f8b26a" stroke="#333" stroke-width="3.5" stroke-miterlimit="10"/></g><g><path fill="none" stroke="#333" stroke-width="3.5" stroke-linecap="round" stroke-linejoin="round" stroke-miterlimit="10" d="M50 64.441V90"/><path d="M70.859 33.201c0 13.989-9.339 27.032-20.859 27.032S29.141 47.19 29.141 33.201 38.48 10 50 10s20.859 9.212 20.859 23.201z" fill="#e15b64" stroke="#333" stroke-width="3.5" stroke-miterlimit="10"/><path d="M40.848 20.085a19.789 19.789 0 0 1 6.615-4.406" fill="#e15b64" stroke="#fff" stroke-width="3.5" stroke-linecap="round" stroke-miterlimit="10"/><path d="M35.289 29.81c.201-.713.429-1.405.685-2.077" fill="#e15b64" stroke="#fff" stroke-width="3.5" stroke-linecap="round" stroke-miterlimit="10"/><path d="M63.51 15.152c.011.442.022.885.022 1.335 0 18.766-9.753 36.263-21.785 36.263-2.693 0-5.27-.882-7.651-2.453 3.826 5.938 9.529 9.935 15.904 9.935 11.52 0 20.859-13.043 20.859-27.032 0-7.725-2.857-13.983-7.349-18.048z" opacity=".2" stroke="#000" stroke-width="3.5" stroke-linecap="round" stroke-linejoin="round" stroke-miterlimit="10"/><path d="M52.605 68.846h-5.211a2.532 2.532 0 0 1-2.43-3.242l1.628-5.568h6.814l1.628 5.568a2.53 2.53 0 0 1-2.429 3.242z" fill="#e15b64" stroke="#333" stroke-width="3.5" stroke-miterlimit="10"/></g><metadata xmlns:d="https://loading.io/stock/"><d:name>balloon</d:name><d:tags>balloon,blow,float,fly,party,toy</d:tags><d:license>by</d:license><d:slug>qbfboy</d:slug></metadata></svg>