<?xml version="1.0"?>
<svg version="1.1" id="圖層_1" xmlns="http://www.w3.org/2000/svg" x="0" y="0" viewBox="0 0 100 100" xml:space="preserve"><path fill="none" stroke="#333" stroke-width="3.5" stroke-linecap="round" stroke-miterlimit="10" d="M58.438 9.085l-2.087 8.666"/><path fill="none" stroke="#333" stroke-width="3.5" stroke-linecap="round" stroke-miterlimit="10" d="M47.5 9.364l2.525 8.548"/><path fill="none" stroke="#333" stroke-width="3.5" stroke-linecap="round" stroke-miterlimit="10" d="M68.05 14.313l-6.14 6.461"/><g><path d="M43.857 24.028l-10.252-3.126a2.922 2.922 0 0 0-3.648 1.944l-5.591 18.338-2.555 8.381a8.281 8.281 0 0 0 5.507 10.337h0a8.281 8.281 0 0 0 10.337-5.507l4.028-13.212 4.118-13.507a2.922 2.922 0 0 0-1.944-3.648z" fill="#fff" stroke="#333" stroke-width="3.5" stroke-linecap="round" stroke-miterlimit="10"/><path fill="none" stroke="#333" stroke-width="3.5" stroke-linecap="round" stroke-miterlimit="10" d="M27.317 59.903l-5.422 17.783"/><path fill="none" stroke="#333" stroke-width="3.5" stroke-linecap="round" stroke-miterlimit="10" d="M14.905 75.555l13.98 4.262"/><path d="M21.81 49.565a8.281 8.281 0 0 0 5.507 10.337h0a8.281 8.281 0 0 0 10.337-5.507l4.028-13.212H24.366l-2.556 8.382z" fill="#f8b26a" stroke="#333" stroke-width="3.5" stroke-linecap="round" stroke-miterlimit="10"/><path fill="none" stroke="#fff" stroke-width="3.5" stroke-linecap="round" stroke-miterlimit="10" d="M27.147 49.467l.313-.956"/><path fill="none" stroke="#fff" stroke-width="3.5" stroke-linecap="round" stroke-miterlimit="10" d="M33.967 47.579l.314-.956"/><path fill="none" stroke="#fff" stroke-width="3.5" stroke-linecap="round" stroke-miterlimit="10" d="M30.161 54.582l.314-.955"/><path fill="none" stroke="#e0e0e0" stroke-width="3.5" stroke-linecap="round" stroke-miterlimit="10" d="M34.124 26.995l-1.372 4.382"/><path d="M37.654 54.396l4.028-13.212h-6.221l-5.697 19.08a8.285 8.285 0 0 0 7.89-5.868z" opacity=".2" stroke="#000" stroke-width="3.5" stroke-linecap="round" stroke-miterlimit="10"/></g><g><path d="M76.577 61.906l-1.538-5.233-6.338-21.568a2.922 2.922 0 0 0-3.629-1.98L54.79 36.147a2.922 2.922 0 0 0-1.98 3.629l4.966 16.898 2.91 9.903a8.282 8.282 0 1 0 15.891-4.671z" fill="#fff" stroke="#333" stroke-width="3.5" stroke-linecap="round" stroke-miterlimit="10"/><path fill="none" stroke="#333" stroke-width="3.5" stroke-linecap="round" stroke-miterlimit="10" d="M70.966 72.187l5.242 17.838"/><path fill="none" stroke="#333" stroke-width="3.5" stroke-linecap="round" stroke-miterlimit="10" d="M69.196 92.085l14.023-4.121"/><path d="M60.685 66.576a8.282 8.282 0 0 0 15.892-4.67l-1.538-5.233H57.775l2.91 9.903z" fill="#f8b26a" stroke="#333" stroke-width="3.5" stroke-linecap="round" stroke-miterlimit="10"/><path fill="none" stroke="#fff" stroke-width="3.5" stroke-linecap="round" stroke-miterlimit="10" d="M71.643 63.564l-.314-.955"/><path fill="none" stroke="#fff" stroke-width="3.5" stroke-linecap="round" stroke-miterlimit="10" d="M64.823 61.677l-.314-.956"/><path fill="none" stroke="#fff" stroke-width="3.5" stroke-linecap="round" stroke-miterlimit="10" d="M67.898 67.949l-.314-.955"/><path fill="none" stroke="#e0e0e0" stroke-width="3.5" stroke-linecap="round" stroke-miterlimit="10" d="M58.393 40.99l1.268 4.414"/><path d="M70.966 72.187a8.282 8.282 0 0 0 5.611-10.281l-1.538-5.233H72.74l-4.808 15.814a8.222 8.222 0 0 0 3.034-.3z" opacity=".2" stroke="#000" stroke-width="3.5" stroke-linecap="round" stroke-miterlimit="10"/></g><metadata xmlns:d="https://loading.io/stock/"><d:name>cheers</d:name><d:tags>cheers,drink,toast,party,bar</d:tags><d:license>by</d:license><d:slug>sdr11n</d:slug></metadata></svg>