<?xml version="1.0"?><svg version="1.1" id="圖層_1" xmlns="http://www.w3.org/2000/svg" x="0" y="0" viewBox="0 0 100 100" xml:space="preserve"><g><g><path d="M21.24 88.447a3.668 3.668 0 0 1-2.809-4.361l5.481-25.321a3.668 3.668 0 1 1 7.17 1.552l-5.481 25.321a3.667 3.667 0 0 1-4.361 2.809z" fill="#ed1e79"/></g><g><path d="M37.619 77.801l-26.889-5.82a3.668 3.668 0 1 1 1.552-7.17l26.889 5.82a3.667 3.667 0 1 1-1.552 7.17z" fill="#ed1e79"/></g><path d="M53.431 22.845a17.436 17.436 0 0 0-4.773 6.582 17.54 17.54 0 0 1 1.089 10.769 17.593 17.593 0 0 1-.905 2.878 17.531 17.531 0 0 1-4.618 6.544c-4.072 3.621-9.745 5.335-15.466 4.097-9.514-2.059-15.578-11.475-13.519-20.988s11.475-15.578 20.989-13.519a17.534 17.534 0 0 1 7.657 3.779 24.626 24.626 0 0 1 4.775-5.573 24.835 24.835 0 0 0-10.88-5.377c-13.468-2.915-26.796 5.67-29.711 19.137s5.67 26.796 19.137 29.711c8.125 1.759 16.195-.673 21.962-5.832a24.917 24.917 0 0 0 7.749-13.306c1.466-6.771.022-13.506-3.486-18.902z" fill="#ed1e79"/></g><g><path d="M88.394 29.673c-3.505-13.08-16.998-20.87-30.077-17.365a24.395 24.395 0 0 0-9.658 5.106 24.651 24.651 0 0 0-4.775 5.573c-3.5 5.583-4.768 12.546-2.932 19.399a24.441 24.441 0 0 0 3.272 7.233 17.55 17.55 0 0 0 4.618-6.544 17.273 17.273 0 0 1-.926-2.555c-1.025-3.824-.665-7.69.742-11.092a17.426 17.426 0 0 1 4.773-6.582 17.216 17.216 0 0 1 6.752-3.573c9.24-2.476 18.771 3.027 21.247 12.267s-3.027 18.771-12.267 21.247c-5.551 1.487-11.196.08-15.365-3.273a24.944 24.944 0 0 1-4.63 5.541c5.91 4.804 13.959 6.814 21.861 4.696 13.08-3.505 20.87-16.998 17.365-30.078z" fill="#0071bc"/><g><path d="M77.619 84.342a3.605 3.605 0 0 1-4.415-2.549l-6.006-22.416a3.605 3.605 0 0 1 6.964-1.866l6.006 22.416a3.605 3.605 0 0 1-2.549 4.415z" fill="#0071bc"/></g><g><path d="M75.816 87.464L56.284 76.188a3.605 3.605 0 0 1 3.604-6.244l13.288 7.672a3.605 3.605 0 0 0 4.924-1.319l7.671-13.288a3.604 3.604 0 1 1 6.243 3.605L80.74 86.145a3.605 3.605 0 0 1-4.924 1.319z" fill="#0071bc"/></g></g><metadata xmlns:d="https://loading.io/stock/">
<d:name>sex</d:name>
<d:tags>love,heterosexual,gender,male,female,sex,people</d:tags>
<d:license>by</d:license>
<d:slug>u4zpqf</d:slug>
</metadata></svg>