<?xml version="1.0"?><svg version="1.1" id="圖層_1" xmlns="http://www.w3.org/2000/svg" x="0" y="0" viewBox="0 0 100 100" xml:space="preserve"><path d="M64.9 17.9c-9.9 4.4-19.8 4.4-29.8 0-1.1-.5-2.4.4-2.3 1.6 2.2 23.3 32.1 23.3 34.3 0 .1-1.2-1.1-2.1-2.2-1.6z" stroke="#333" stroke-width="3" stroke-miterlimit="10" fill="#e0e0e0" stroke-linecap="round" stroke-linejoin="round"/><path d="M73.7 19.4c-1.7-.6-3.5-1.2-5.3-1.7-1.3-.4-2.7-.7-4.1-1 0 22.4-28.6 22.4-28.6 0-1.4.3-2.7.6-4.1 1-1.8.5-3.6 1.1-5.3 1.7-6.8 2.5-13 6.2-18.8 11.2L15 45.8l11.3-5.6v43h47.4v-43L85 45.8l7.5-15.2c-5.8-4.9-12-8.6-18.8-11.2z" stroke="#333" stroke-width="3" stroke-miterlimit="10" fill="#fff" stroke-linecap="round" stroke-linejoin="round"/><path stroke="#333" stroke-width="3" stroke-miterlimit="10" fill="#f47e60" stroke-linecap="round" stroke-linejoin="round" d="M50 44.7l4.1 8.3 9.1 1.3-6.6 6.4 1.6 9.1-8.2-4.3-8.2 4.3 1.6-9.1-6.6-6.4 9.1-1.3z"/><metadata xmlns:d="https://loading.io/stock/">
<d:name>t-shirt</d:name>
<d:tags>t-shirt,clothing,tee,wear,bodysuit,tunic,polo,star</d:tags>
<d:license>by</d:license>
<d:slug>w3aynq</d:slug>
</metadata></svg>