<?xml version="1.0"?><svg version="1.1" id="圖層_1" xmlns="http://www.w3.org/2000/svg" x="0" y="0" viewBox="0 0 100 100" xml:space="preserve"><path fill="#ffdc6c" d="M50 22.47h-5.985l-.744.681-1.74 12.919L50 28.313z"/><path fill="#849b87" d="M44.44 90.029L50 95V84.937z"/><path fill="#f47e60" d="M50 62.287l-13.69 12.54-.954 7.082 2.827 2.527L50 73.612z"/><path fill="#77a4bd" d="M50 39.638l-10.209 9.351-1.74 12.919L50 50.962z"/><path fill="#abbd81" d="M50 95l14.644-13.091-1.246-9.245L50 84.937z"/><path fill="#f5e6c8" d="M50 22.47v5.843l6.379-5.843z"/><path fill="#a0c8d7" d="M50 50.962l9.324-8.541-1.358-10.08L50 39.638z"/><path fill="#f8b26a" d="M50 73.612l12.04-11.029-1.358-10.081L50 62.287z"/><path d="M50 5h-9.326c-2.486 0-4.138 2.574-3.102 4.834l2.329 5.081L50 5.663V5z" fill="#c33737"/><path fill="#ffdc6c" d="M44.015 22.47H50v-5.482z"/><path d="M50 22.47h6.379l.444-.407 5.605-12.229c.606-1.321.288-2.746-.573-3.705L50 16.988v5.482z" fill="#f5e6c8"/><path fill="#666" d="M50.724 5H50v.663z"/><path fill="#f47e60" d="M43.363 22.47l-.092.681.744-.681z"/><path fill="#f47e60" d="M43.363 22.47h.652L50 16.988V5.663l-10.1 9.251 3.463 7.556z"/><path d="M50 16.988L61.855 6.129A3.369 3.369 0 0 0 59.326 5h-8.602L50 5.663v11.325z" fill="#f8b26a"/><path fill="#849b87" d="M50 28.313l-8.469 7.757-1.74 12.919L50 39.638z"/><path fill="#abbd81" d="M56.379 22.47L50 28.313v11.325l7.966-7.297-1.329-9.871z"/><path fill="#e15b64" d="M56.637 22.47l.186-.407-.444.407z"/><path fill="#c33737" d="M50 50.962L38.051 61.908 36.31 74.827 50 62.287z"/><path fill="#e15b64" d="M50 62.287l10.682-9.785-1.358-10.081L50 50.962z"/><path fill="#ffdc6c" d="M50 84.937V73.612L38.183 84.436l6.257 5.593z"/><path fill="#f5e6c8" d="M50 84.937l13.398-12.273-1.358-10.081L50 73.612z"/><metadata xmlns:d="https://loading.io/stock/">
<d:name>tie</d:name>
<d:tags>business,sales,official,suit,man,tie</d:tags>
<d:license>by</d:license>
<d:slug>wlevq7</d:slug>
</metadata></svg>