<?xml version="1.0" encoding="utf-8"?><!--Generator: Adobe Illustrator 24.0.1, SVG Export Plug-In . SVG Version: 6.00 Build 0)--><svg version="1.1" id="圖層_1" xmlns="http://www.w3.org/2000/svg" xmlns:xlink="http://www.w3.org/1999/xlink" x="0px" y="0px" viewBox="0 0 128 128" enable-background="new 0 0 128 128" xml:space="preserve"><path fill="none" d="z"/><path fill="#E0E0E0" stroke="#333333" stroke-width="3.84" stroke-linecap="round" stroke-linejoin="round" stroke-miterlimit="12.8" d=" M76.03,39.3c-7.94,3.07-16,3.07-23.94,0c-2.05-0.77-3.97,1.02-3.58,3.07c3.58,18.56,27.65,18.56,31.23,0 C80,40.32,77.95,38.53,76.03,39.3z"/><g><path fill="none" stroke="#333333" stroke-width="3.84" stroke-linecap="round" stroke-linejoin="round" stroke-miterlimit="12.8" d=" M64,35.33L42.62,53.25"/><path fill="none" stroke="#333333" stroke-width="3.84" stroke-linecap="round" stroke-linejoin="round" stroke-miterlimit="12.8" d=" M64,35.33l21.38,17.92"/><path fill="none" stroke="#333333" stroke-width="3.84" stroke-linecap="round" stroke-linejoin="round" stroke-miterlimit="12.8" d=" M72.83,21.63c0-4.86-3.97-8.83-8.83-8.83s-8.83,3.97-8.83,8.83s3.97,8.83,8.83,8.83v4.99"/></g><path fill="#FFFFFF" stroke="#333333" stroke-width="3.84" stroke-linecap="round" stroke-linejoin="round" stroke-miterlimit="12.8" d=" M86.78,94.21V60.29l10.88,5.38l7.17-14.59c-5.5-4.74-11.52-8.32-18.05-10.75c-1.66-0.64-3.33-1.15-5.12-1.66 c-1.28-0.38-2.56-0.64-3.97-0.9c0,21.5-27.39,21.5-27.39,0c-1.28,0.26-2.69,0.64-3.97,0.9c-1.79,0.51-3.46,1.02-5.12,1.66 c-6.53,2.43-12.54,6.02-18.05,10.75l7.17,14.59l10.88-5.38v33.92c0,1.28,0.9,2.56,2.18,2.82c6.78,1.92,11.26,8.06,12.54,15.74 c0.26,1.41,1.54,2.43,2.94,2.43h10.24c1.41,0,2.69-1.02,2.94-2.43c1.28-7.68,5.76-13.82,12.54-15.74 C85.89,96.64,86.78,95.49,86.78,94.21z"/><path fill="#F47E60" stroke="#333333" stroke-width="3.84" stroke-linecap="round" stroke-linejoin="round" stroke-miterlimit="12.8" d=" M64,66.18l3.58,7.3l7.94,1.15l-5.76,5.63l1.41,7.94L64,84.35l-7.17,3.84l1.41-7.94l-5.76-5.63l7.94-1.15L64,66.18z"/><path fill="none" d="z"/><metadata xmlns:d="https://loading.io/stock/">
<d:name>baby suit</d:name>
<d:tags>baby suit,cloth,wear,babysuit,child,infant,babygrow,babygro,sleepsuit,star,hanger</d:tags>
<d:license>by</d:license>
<d:slug>y9t1ne</d:slug>
</metadata></svg>