<?xml version="1.0"?><svg version="1.1" id="圖層_1" xmlns="http://www.w3.org/2000/svg" x="0" y="0" viewBox="0 0 100 100" xml:space="preserve"><path fill="#fff" d="M55.181 26.647l-.414-3.072L50 26.792v3.352z"/><path d="M59.621 7.028A1.531 1.531 0 0 0 59.326 7h-4.629L50 10.17v3.351l9.621-6.493z" fill="#fff"/><path fill="#fff" d="M57.234 41.884l-.414-3.072L50 43.415v3.351z"/><path fill="#fff" d="M61.339 72.357l-.414-3.072L50 76.659v3.351z"/><path fill="#fff" d="M59.286 57.121l-.413-3.072L50 60.037v3.351z"/><path d="M64.53 81.062l-1.043-7.741-1.01-7.496-1.043-7.741-1.01-7.496-1.043-7.741-1.01-7.496-1.043-7.741-.692-5.14 1.705-3.721 4.086-8.916a3.366 3.366 0 0 0 .164-2.398C62.179 6.071 60.929 5 59.326 5H50v5.17L54.697 7h4.629c.104 0 .202.01.294.028L50 13.522v13.271l4.767-3.218.414 3.072L50 30.144v13.271l6.82-4.603.414 3.072L50 46.766v13.271l8.873-5.988.414 3.072L50 63.388v13.271l10.925-7.373.414 3.072L50 80.01V95l14.644-13.091-.114-.847z" fill="#e15b64"/><path fill="#e0e0e0" d="M43.782 34.34L50 30.144v-3.352l-5.721 3.862z"/><path fill="#e0e0e0" d="M43.479 17.923L50 13.522V10.17l-7.694 5.193z"/><path fill="#e0e0e0" d="M41.319 52.625L50 46.766v-3.351l-8.184 5.523z"/><path fill="#e0e0e0" d="M42.156 85.304L50 80.01v-3.351l-9.98 6.736z"/><path fill="#e0e0e0" d="M38.856 70.909L50 63.388v-3.351l-10.647 7.186z"/><path d="M42.156 85.304l-2.136-1.91L50 76.659V63.388l-11.144 7.521.497-3.686L50 60.037V46.766l-8.681 5.859.497-3.686L50 43.415V30.144l-6.218 4.196.497-3.686L50 26.792v-13.27l-6.521 4.401-1.173-2.56L50 10.17V5h-9.326c-1.772 0-3.115 1.309-3.367 2.879a3.369 3.369 0 0 0 .265 1.954l2.209 4.82 2.862 6.245.72 1.57-.947 7.028-1.212 8.995-1.251 9.29-1.212 8.995-1.251 9.29-1.212 8.995-.922 6.847 1.415 1.265 5.212 4.659 5.383 4.812L50 95V80.01l-7.844 5.294z" fill="#c33737"/><metadata xmlns:d="https://loading.io/stock/">
<d:name>tie</d:name>
<d:tags>business,sales,official,suit,man,tie</d:tags>
<d:license>by</d:license>
<d:slug>ykdqt7</d:slug>
</metadata></svg>