<?xml version="1.0"?><svg version="1.1" id="Layer_1" xmlns="http://www.w3.org/2000/svg" x="0" y="0" viewBox="0 0 100 100" xml:space="preserve"><g><path d="M53.889 52.5l-27-27c-6.91 6.91-11.184 16.456-11.184 27h38.184z" stroke-width="3.5" stroke-miterlimit="10" fill="#f0af6b" stroke="#333" stroke-linecap="round" stroke-linejoin="round"/><path opacity=".2" stroke="#000" stroke-linecap="round" stroke-linejoin="round" stroke-width="3.5" stroke-miterlimit="10" d="M53.889 52.5h0L41.445 40.056 28.617 52.5z"/></g><g><path d="M22.889 52.5c0 8.56 3.47 16.31 9.08 21.92l21.92-21.92h-31z" stroke="#333" stroke-linecap="round" stroke-linejoin="round" fill="#a8b980" stroke-width="3.5" stroke-miterlimit="10"/><path d="M31.969 74.42l21.92-21.92h-12.87L26.35 66.729a31.083 31.083 0 0 0 5.619 7.691z" opacity=".2" stroke="#000" stroke-linecap="round" stroke-linejoin="round" stroke-width="3.5" stroke-miterlimit="10"/></g><g><path d="M53.889 52.5l-16 16a22.556 22.556 0 0 0 16 6.627V52.5h0z" stroke-width="3.5" stroke-miterlimit="10" fill="#d65a62" stroke="#333" stroke-linecap="round" stroke-linejoin="round"/><path d="M53.889 75.127V62.626L43.57 72.635a22.515 22.515 0 0 0 10.319 2.492z" opacity=".2" stroke="#000" stroke-linecap="round" stroke-linejoin="round" stroke-width="3.5" stroke-miterlimit="10"/></g><g><path d="M53.889 52.5v38c10.493 0 19.993-4.253 26.87-11.13L53.889 52.5h0z" stroke-width="3.5" stroke-miterlimit="10" fill="#ea7c60" stroke="#333" stroke-linecap="round" stroke-linejoin="round"/><path d="M80.759 79.37l-7.298-7.298-18.984 18.413A37.874 37.874 0 0 0 80.759 79.37z" opacity=".2" stroke="#000" stroke-linecap="round" stroke-linejoin="round" stroke-width="3.5" stroke-miterlimit="10"/></g><g><path d="M53.889 52.5l12.728 12.728A17.944 17.944 0 0 0 71.889 52.5h-18z" stroke-width="3.5" stroke-miterlimit="10" fill="#f0af6b" stroke="#333" stroke-linecap="round" stroke-linejoin="round"/><path d="M71.889 52.5h-18l12.728 12.728A17.944 17.944 0 0 0 71.889 52.5z" opacity=".2" stroke="#000" stroke-linecap="round" stroke-linejoin="round" stroke-width="3.5" stroke-miterlimit="10"/></g><g><path d="M53.889 52.5h28.284c0-7.811-3.166-14.882-8.284-20l-20 20h0z" stroke="#333" stroke-linecap="round" stroke-linejoin="round" fill="#a8b980" stroke-width="3.5" stroke-miterlimit="10"/><path d="M82.173 52.5a28.152 28.152 0 0 0-4.825-15.805L71.235 52.5h10.938z" opacity=".2" stroke="#000" stroke-linecap="round" stroke-linejoin="round" stroke-width="3.5" stroke-miterlimit="10"/></g><g><path d="M84.295 22.094C76.513 14.313 65.763 9.5 53.889 9.5v43l30.406-30.406z" stroke-width="3.5" stroke-miterlimit="10" fill="#d65a62" stroke="#333" stroke-linecap="round" stroke-linejoin="round"/><path d="M84.295 22.094a43.079 43.079 0 0 0-12.242-8.57l-15.18 35.992 27.422-27.422z" opacity=".2" stroke="#000" stroke-linecap="round" stroke-linejoin="round" stroke-width="3.5" stroke-miterlimit="10"/></g><g><path d="M53.889 26.5c-7.18 0-13.68 2.91-18.385 7.615L53.889 52.5v-26z" stroke-width="3.5" stroke-miterlimit="10" fill="#ea7c60" stroke="#333" stroke-linecap="round" stroke-linejoin="round"/></g><path opacity=".2" stroke="#000" stroke-linecap="round" stroke-linejoin="round" stroke-width="3.5" stroke-miterlimit="10" d="M53.889 52.5V31.746L43.354 41.965z"/><path stroke-width="3.5" stroke-miterlimit="10" fill="#333" stroke-linecap="round" stroke="#333" stroke-linejoin="round" d="M53.889 52.5h0z"/><path stroke-width="3.5" stroke-miterlimit="10" fill="#333" stroke-linecap="round" stroke="#333" stroke-linejoin="round" d="M53.889 52.5h0z"/><g><circle cx="53.889" cy="52.5" r="9" stroke-width="3.5" stroke-miterlimit="10" fill="#666" stroke="#333" stroke-linecap="round" stroke-linejoin="round"/><path d="M49.725 48.881c.842-1.308 2.103-1.796 3.648-1.522" stroke-linecap="round" stroke-linejoin="round" fill="#666" stroke="#fff" stroke-width="3.5" stroke-miterlimit="10"/><path d="M49.131 54.974a9.66 9.66 0 0 1-.243-.542" stroke-linecap="round" stroke-linejoin="round" fill="#666" stroke="#fff" stroke-width="3.5" stroke-miterlimit="10"/></g><metadata xmlns:d="https://loading.io/stock/">
<d:name>data visualization</d:name>
<d:tags>data visualization,chart,statistics,graph,polar chart,pie,dashboard,business intelligence,bi</d:tags>
<d:license>by</d:license>
<d:slug>ynfaop</d:slug>
</metadata></svg>