<?xml version="1.0"?>
<svg version="1.1" id="圖層_1" xmlns="http://www.w3.org/2000/svg" x="0" y="0" viewBox="0 0 100 100" xml:space="preserve"><path d="M53.2 34.2h-9.5v14.7h24.4l-6.7-10.2c-1.7-2.8-4.8-4.5-8.2-4.5z" fill="#666"/><path d="M35.1 34.2c-3.4 0-6.5 2.2-7.3 5.4l-3.6 9.3h16.5V34.2h-5.6z" fill="#666"/><path d="M65.1 36.8c-2-3.3-5.7-5.4-9.7-5.4H31.9c-4.1 0-7.7 2.6-8.7 6.4l-4.3 11.1h5.8l3.4-8.7c.8-3 3.6-5.1 6.8-5.1h5.2v13.7h4.4V35.2h8.9c3.1 0 6.1 1.6 7.6 4.2l6.2 9.5H73l-7.9-12.1z" fill="#e0e0e0"/><path d="M47 30.9h-4.7c-1.8 0-3.4-1.2-3.4-2.8 0-1.5 1.6-2.6 3.4-2.3l4.7.6c1.3.2 2.2 1.2 2.2 2.4 0 1.1-1 2.1-2.2 2.1z" fill="#d50d01"/><path fill="#e0e0e0" d="M19.1 48.4l3.2 19h50.2v-19z"/><path d="M88.1 57.9l-.8-3.2c-.1-.4-.2-.7-.3-1-1.1-3.1-4.1-5.2-7.4-5.2h-7.1v19h18l-2.4-9.6z"/><path d="M9.3 53.7c0 .1-.1.2-.1.3l-.6 3.9-.8 5.4c0 2.2 1.8 4.1 4.1 4.1h10.4l-3.2-19h-3.6c-3.1 0-5.7 2.2-6.2 5.3z"/><path d="M13.5 53.7h-4c-.3 0-.5.1-.5.3l-.5 3.4c0 .3.2.5.4.5h4.6c1.1 0 1.9-.8 1.9-1.9v-.5c0-1-.9-1.8-1.9-1.8z" fill="#e15b64"/><path d="M87.6 54.1c-.1-.3-.3-.5-.6-.5h-3c-.8 0-1.4.6-1.4 1.3v1.6c0 .7.6 1.3 1.4 1.3h3.8c.4 0 .8-.4.6-.8l-.8-2.9z" fill="#e0e0e0"/><path d="M90.3 62.9H7.9s-.4 0-.4.4c0 2.4 1.7 4.1 4.2 4.1h78.5c1.2 0 2.2-1 2.2-2.2.1-1.3-.9-2.3-2.1-2.3z"/><g><circle cx="23.9" cy="65.3" r="7.5" fill="#fff"/><path d="M23.9 59.3c3.3 0 6 2.7 6 6s-2.7 6-6 6-6-2.7-6-6 2.7-6 6-6m0-3c-5 0-9 4-9 9s4 9 9 9 9-4 9-9-4.1-9-9-9z" fill="#333"/></g><g><circle cx="23.9" cy="65.3" r="4" fill="#e6e6e6"/></g><g><circle cx="71.5" cy="65.3" r="7.5" fill="#fff"/><path d="M71.5 59.3c3.3 0 6 2.7 6 6s-2.7 6-6 6-6-2.7-6-6 2.7-6 6-6m0-3c-5 0-9 4-9 9s4 9 9 9 9-4 9-9-4-9-9-9z" fill="#333"/></g><g><circle cx="71.5" cy="65.3" r="4" fill="#e6e6e6"/></g><path fill="#f8b26a" d="M54.9 50.4l1.5 3.1 3.4.5-2.5 2.4.6 3.3-3-1.5-3 1.5.5-3.3L50 54l3.4-.5z"/><metadata xmlns:d="https://loading.io/stock/"><d:name>police car</d:name><d:tags>ranger,patrol,wagon,black maria,garrison,crime,cop,officer,police car,transportation</d:tags><d:license>by</d:license><d:slug>yrmykd</d:slug></metadata></svg>