<?xml version="1.0"?>
<svg version="1.1" id="圖層_1" xmlns="http://www.w3.org/2000/svg" x="0" y="0" viewBox="0 0 100 100" xml:space="preserve"><path d="M79.456 30.686a5.793 5.793 0 0 0 1.725-4.131c0-.333-.034-.658-.088-.976a7.766 7.766 0 0 0 4.003-6.794 7.77 7.77 0 0 0-7.77-7.77c-.43 0-.849.044-1.26.111a5.813 5.813 0 0 0-11.084 3.325c-.039-.001-.074-.011-.113-.011a4.686 4.686 0 0 0 0 9.372c.012 0 .022-.003.034-.003a4.429 4.429 0 0 0-1.527 3.335 4.46 4.46 0 0 0 4.459 4.459V68.24a4.33 4.33 0 0 0 8.66 0V41.837c.272.039.548.066.83.066a5.814 5.814 0 0 0 5.813-5.813 5.808 5.808 0 0 0-3.682-5.404zm-9.901-11.56c0-.039-.01-.075-.011-.113l.023.004a7.726 7.726 0 0 0 1.224 3.963 5.776 5.776 0 0 0-.374.541 4.427 4.427 0 0 0-2.538-.831c1.017-.86 1.676-2.129 1.676-3.564z" fill="#fff" stroke="#333" stroke-width="3.5" stroke-linejoin="round" stroke-miterlimit="10"/><path d="M55.667 45.014l9.878-16.45c.883-1.409.542-3.204-.749-3.949-.565.978-5.795-2.041-5.23-3.02-1.292-.746-3.016-.143-3.795 1.326L46.463 39.7c-1.791 3.102-4.924 5.256-8.693 5.977h0c-2.796.535-5.119 2.132-6.448 4.433l-16.14 27.956c-3.036 5.259 19.864 18.48 22.9 13.221l16.14-27.956c1.328-2.301 1.55-5.112.615-7.8h0c-1.26-3.625-.961-7.415.83-10.517z" fill="#abbd81" stroke="#333" stroke-width="3.5" stroke-miterlimit="10"/><path d="M20.93 68.106l-5.75 9.959c-3.036 5.259 19.864 18.48 22.9 13.221l5.75-9.959c2.277-3.944-20.623-17.165-22.9-13.221z" fill="#849b87" stroke="#333" stroke-width="3.5" stroke-miterlimit="10"/><path d="M55.107 56.441c-4.541 1.531-8.335.938-11.621-.959-3.286-1.897-5.697-4.889-6.641-9.589" fill="none" stroke="#333" stroke-width="2" stroke-miterlimit="10"/><path d="M27.25 57.161l-7.515 13.016c-3.036 5.259 19.864 18.48 22.9 13.221l7.515-13.016c-3.036 5.26-25.936-7.962-22.9-13.221z" fill="#e0e0e0" stroke="#333" stroke-width="3.5" stroke-miterlimit="10"/><ellipse transform="rotate(-60 38.245 64.563)" cx="38.245" cy="64.561" rx="3.757" ry="13.221" fill="#849b87" stroke="#333" stroke-width="3.5" stroke-miterlimit="10"/><circle transform="rotate(-60 43.483 55.491)" cx="43.482" cy="55.49" fill="#333" r="4.099"/><path fill="none" stroke="#fff" stroke-width="3.5" stroke-linecap="round" stroke-linejoin="round" stroke-miterlimit="10" d="M35.748 52.15l-2.644 4.58"/><g><path d="M64.547 24.771h0c-.257.069-.671-.012-1.146-.174L25.939 89.484c5.285 2.761 10.763 4.192 12.143 1.803l4.554-7.888 7.515-13.016 4.071-7.052c1.179-2.042 1.481-4.486.882-6.889l.004-.001-.005-.003a10.494 10.494 0 0 0-.266-.907c-1.26-3.625-.962-7.415.829-10.517l9.878-16.45c.801-1.279.586-2.867-.425-3.709a3.679 3.679 0 0 1-.572-.084z" opacity=".2" stroke="#000" stroke-width="3.5" stroke-linejoin="round" stroke-miterlimit="10"/></g><metadata xmlns:d="https://loading.io/stock/"><d:name>champagne</d:name><d:tags>champagne,wine,drink,cocktail,party,festival,celebrate,birthday,sparkling wine</d:tags><d:license>by</d:license><d:slug>ysdvox</d:slug></metadata></svg>